<?xml version="1.0" encoding="UTF-8" standalone="no"?>
<!-- Created with Inkscape (http://www.inkscape.org/) -->

<svg
   xmlns:dc="http://purl.org/dc/elements/1.1/"
   xmlns:cc="http://creativecommons.org/ns#"
   xmlns:rdf="http://www.w3.org/1999/02/22-rdf-syntax-ns#"
   xmlns:svg="http://www.w3.org/2000/svg"
   xmlns="http://www.w3.org/2000/svg"
   xmlns:sodipodi="http://sodipodi.sourceforge.net/DTD/sodipodi-0.dtd"
   xmlns:inkscape="http://www.inkscape.org/namespaces/inkscape"
   width="2120"
   height="765"
   id="svg3765"
   version="1.1"
   inkscape:version="0.48.4 r9939"
   sodipodi:docname="background-done.svg">
  <defs
     id="defs3767" />
  <sodipodi:namedview
     id="base"
     pagecolor="#ffffff"
     bordercolor="#666666"
     borderopacity="1.0"
     inkscape:pageopacity="0.0"
     inkscape:pageshadow="2"
     inkscape:zoom="0.49497475"
     inkscape:cx="977.03052"
     inkscape:cy="318.09641"
     inkscape:document-units="px"
     inkscape:current-layer="layer3"
     showgrid="false"
     inkscape:window-width="1920"
     inkscape:window-height="1144"
     inkscape:window-x="-4"
     inkscape:window-y="-4"
     inkscape:window-maximized="1" />
  <metadata
     id="metadata3770">
    <rdf:RDF>
      <cc:Work
         rdf:about="">
        <dc:format>image/svg+xml</dc:format>
        <dc:type
           rdf:resource="http://purl.org/dc/dcmitype/StillImage" />
        <dc:title />
      </cc:Work>
    </rdf:RDF>
  </metadata>
  <g
     inkscape:label="Background"
     inkscape:groupmode="layer"
     id="layer1"
     transform="translate(0,-287.36217)"
     style="display:none"
     sodipodi:insensitive="true">
    <rect
       style="fill:#000000;fill-opacity:1;stroke:#ffffff;stroke-width:0;stroke-linejoin:miter;stroke-miterlimit:4;stroke-opacity:1;stroke-dasharray:none;stroke-dashoffset:0"
       id="rect4282"
       width="2563.7673"
       height="771.75647"
       x="2.0203006"
       y="-4.736239"
       transform="translate(0,287.36217)" />
  </g>
  <g
     inkscape:groupmode="layer"
     id="layer3"
     inkscape:label="Layer">
    <path
       d="m 2012.1183,67.525737 c -26.9658,5.54686 -44.3269,31.899803 -38.78,58.865823 5.5469,26.96603 31.9,44.32698 58.8658,38.78011 26.966,-5.5469 44.3272,-31.89986 38.7803,-58.86589 -5.5469,-26.966023 -31.9001,-44.326953 -58.8661,-38.780043 z m 52.1636,38.517173 -18.8866,3.88497 c -1.6084,-6.94132 -4.2205,-13.35116 -7.6773,-18.99955 3.8874,-2.64803 7.3332,-5.815933 10.3443,-9.340903 7.8438,5.842583 13.7391,14.311913 16.2196,24.455483 z m -35.1336,53.0991 c -6.1318,-3.28255 -11.6871,-8.03966 -16.2523,-13.95249 3.8583,-2.13649 8.082,-3.74073 12.5659,-4.81408 l 3.8545,18.73855 c -0.058,0.0119 -0.1113,0.0199 -0.1682,0.0274 z M 2015.168,73.556657 c 6.9579,3.72326 13.1681,9.35032 18.0367,16.402413 -4.1765,2.45798 -8.765,4.33097 -13.7001,5.51028 l -4.5024,-21.888443 c 0.06,-0.009 0.1122,-0.0159 0.1659,-0.0239 z m 5.3579,-0.544 c 8.9909,-0.34248 17.6251,2.11346 24.9072,6.74189 -2.7777,3.20775 -5.9404,6.09085 -9.5031,8.514503 -4.2641,-6.204603 -9.5221,-11.384013 -15.4041,-15.256393 z m -8.6704,1.21553 4.5024,21.888433 c -5.0003,0.86113 -9.9582,0.95511 -14.7621,0.3444 1.6893,-8.40107 5.1745,-16.022433 10.0978,-22.189693 0.057,-0.0148 0.1067,-0.0291 0.1618,-0.0435 z m -13.4303,21.758883 c -4.2238,-0.82199 -8.271,-2.22202 -12.0893,-4.07296 4.8607,-7.126193 11.8278,-12.791303 20.2241,-16.025383 -3.8801,5.87716 -6.6637,12.710713 -8.1348,20.098343 z m 2.5801,3.62247 c 5.204,0.68603 10.5815,0.60421 16.0012,-0.33989 l 3.2558,15.82808 -18.8329,3.87392 c -1.1867,-6.63079 -1.3147,-13.17404 -0.4241,-19.36211 z m 19.9049,18.63805 3.9038,18.97797 c -4.9362,1.17297 -9.5726,2.97372 -13.7989,5.36316 -4.0637,-5.93393 -7.1615,-12.83811 -8.9378,-20.46721 l 18.8329,-3.87392 z m 2.8866,41.43709 c -8.056,0.30776 -15.8284,-1.62942 -22.5933,-5.37271 2.6601,-2.78957 5.6403,-5.30025 8.9401,-7.42032 3.9183,5.12991 8.5521,9.44621 13.6532,12.79303 z m 8.6703,-1.21549 -3.8545,-18.73857 c 4.5403,-0.78292 9.0576,-0.97669 13.4457,-0.53651 -1.8638,7.23529 -5.0873,13.79819 -9.4256,19.23446 -0.054,0.0111 -0.1102,0.0257 -0.1654,0.0412 z m 12.7915,-18.80069 c 3.8658,0.6461 7.5923,1.78049 11.143,3.28923 -4.739,6.10635 -11.1149,10.95712 -18.6383,13.85405 3.3659,-5.08849 5.9168,-10.88267 7.4953,-17.14328 z m -2.499,-3.60961 c -4.8296,-0.52664 -9.8003,-0.35122 -14.7956,0.5187 l -3.9037,-18.97797 18.8329,-3.87392 c 1.3793,7.71075 1.2549,15.27773 -0.1336,22.33319 z m -19.3472,-21.60913 -3.2559,-15.82807 c 5.3495,-1.27113 10.3231,-3.31523 14.8368,-6.00019 3.2576,5.33477 5.7228,11.39727 7.2526,17.95749 l -18.8329,3.87393 z m -38.7663,-19.81762 c 4.1579,2.05029 8.5743,3.60094 13.1881,4.50029 -0.9466,6.55417 -0.8165,13.47455 0.4454,20.48714 l -18.8868,3.88501 c -1.7245,-10.29908 0.3494,-20.40768 5.2533,-28.87244 z m -4.6054,32.0223 18.8868,-3.88501 c 1.8506,8.00779 5.096,15.26244 9.3584,21.50682 -3.6707,2.37694 -6.9645,5.21479 -9.8929,8.37472 -8.9102,-5.83987 -15.6484,-14.94349 -18.3523,-25.99653 z m 78.2872,13.66466 c -3.9376,-1.74432 -8.0845,-3.05491 -12.3985,-3.78941 1.4547,-7.42036 1.5701,-15.36632 0.1132,-23.4551 l 18.8866,-3.88496 c 1.8789,11.22599 -0.7221,22.25068 -6.6013,31.12947 z"
       id="world"
       inkscape:connector-curvature="0"
       style="fill:#ffffff;fill-opacity:0.60000002;stroke:none" />
    <g
       id="g4447"
       transform="matrix(3.3864418,-0.97104658,0.97104658,3.3864418,1886.7308,590.74148)"
       style="fill:#ffffff;fill-opacity:0.60000002;stroke:none">
      <g
         id="Layer_1"
         style="fill:#ffffff;fill-opacity:0.60000002;stroke:none">
        <g
           id="fire_1_"
           style="fill:#ffffff;fill-opacity:0.60000002;stroke:none">
          <path
             id="path4436"
             d="m 22,9 c -0.062,2.675 -2.07,4.934 -2.07,4.934 C 19.93,8.958 16,5 16,5 16,5 15.947,7.962 13.957,10.948 11.967,3.981 5.995,0 5.995,0 8.981,10.948 5,14.93 5,22.892 5,27.563 8.954,32 15,32 23.957,32 25.689,28.712 26.615,25.007 27.891,19.906 25.98,13.976 22,9 z m 2.676,15.521 C 24.033,27.09 23.307,30 15,30 9.992,30 7,26.386 7,22.892 7,20.216 7.488,18.019 8.004,15.693 8.66,12.744 9.332,9.725 9.041,5.732 c 3.084,4.269 4.182,9.925 4.182,9.925 0,0 2.871,-4.031 3.643,-5.903 C 17.457,10.957 18,15 18,19 c 0,0 2.656,-2.188 4.648,-5.478 2.098,3.762 2.854,7.695 2.028,10.999 z"
             inkscape:connector-curvature="0"
             style="fill:#ffffff;fill-opacity:0.60000002;stroke:none" />
          <path
             id="path4438"
             d="m 22.432,16.795 -0.85,0.985 c -1.053,1.228 -2.049,2.392 -4.708,3.73 -0.381,-1.142 -0.727,-2.399 -0.727,-4.323 v -1.709 l -1.518,2.378 c -0.512,0.811 -0.936,1.483 -1.568,2.376 C 12.102,18.07 11.424,16.471 10.909,15.02 L 10.43,13.67 9.91,15.18 c -0.66,1.921 -1.285,3.735 -1.285,8.444 0,0.276 0.223,0.5 0.5,0.5 0.275,0 0.5,-0.224 0.5,-0.5 0,-3.609 0.359,-5.396 0.84,-6.941 0.52,1.322 1.176,2.825 2.037,4.75 l 0.352,0.784 0.508,-0.692 c 0.83,-1.13 1.324,-1.89 1.865,-2.743 0.158,1.479 0.523,2.54 0.885,3.59 L 16.294,22.9 16.8,22.661 c 2.703,-1.284 3.968,-2.453 4.972,-3.575 0.156,1.864 -0.09,3.904 -0.674,5.353 -0.104,0.256 0.021,0.547 0.277,0.65 0.061,0.024 0.125,0.036 0.188,0.036 0.197,0 0.385,-0.118 0.463,-0.313 0.775,-1.924 1.008,-4.664 0.592,-6.982 l -0.186,-1.035 z"
             inkscape:connector-curvature="0"
             style="fill:#ffffff;fill-opacity:0.60000002;stroke:none" />
        </g>
      </g>
      <g
         id="Layer_2"
         style="fill:#ffffff;fill-opacity:0.60000002;stroke:none" />
    </g>
    <g
       id="settings"
       transform="matrix(2.321368,0,0,2.0534886,1790.2156,107.67358)"
       style="fill:#ffffff;fill-opacity:0.60000002;stroke:none">
      <path
         id="path4456"
         d="M 30.391,12.68 27.327,12.066 C 27.173,11.623 26.991,11.193 26.79,10.777 L 28.526,8.173 C 29.055,7.38 28.95,6.323 28.276,5.65 L 26.352,3.726 C 25.965,3.339 25.454,3.14 24.936,3.14 c -0.383,0 -0.77,0.11 -1.107,0.336 L 21.225,5.211 C 20.807,5.009 20.377,4.829 19.934,4.675 L 19.32,1.61 C 19.134,0.674 18.312,0.002 17.359,0.002 h -2.72 c -0.953,0 -1.774,0.673 -1.961,1.608 L 12.064,4.675 C 11.621,4.829 11.191,5.01 10.775,5.211 L 8.172,3.476 C 7.833,3.25 7.447,3.14 7.063,3.14 6.546,3.14 6.035,3.339 5.648,3.726 L 3.725,5.65 C 3.051,6.324 2.946,7.38 3.475,8.173 l 1.735,2.604 c -0.202,0.417 -0.382,0.847 -0.536,1.29 L 1.608,12.68 C 0.673,12.867 0,13.688 0,14.641 v 2.72 c 0,0.953 0.673,1.775 1.608,1.961 l 3.065,0.615 c 0.154,0.443 0.335,0.873 0.536,1.289 L 3.475,23.83 c -0.529,0.793 -0.424,1.85 0.25,2.523 l 1.924,1.924 c 0.387,0.387 0.898,0.586 1.415,0.586 0.384,0 0.771,-0.111 1.108,-0.336 l 2.604,-1.736 c 0.417,0.203 0.847,0.383 1.29,0.537 l 0.613,3.064 c 0.187,0.936 1.008,1.609 1.961,1.609 h 2.72 c 0.953,0 1.775,-0.674 1.961,-1.609 l 0.615,-3.064 c 0.443,-0.154 0.873,-0.336 1.289,-0.537 l 2.604,1.736 c 0.338,0.225 0.725,0.336 1.107,0.336 0.518,0 1.029,-0.199 1.416,-0.586 l 1.924,-1.924 c 0.674,-0.674 0.779,-1.73 0.25,-2.523 L 26.79,21.226 c 0.203,-0.418 0.383,-0.848 0.537,-1.291 l 3.064,-0.613 C 31.326,19.137 32,18.314 32,17.361 v -2.72 c 0,-0.953 -0.674,-1.774 -1.609,-1.961 z m -3.457,5.295 c -0.695,0.139 -1.264,0.635 -1.496,1.305 -0.129,0.369 -0.279,0.727 -0.447,1.074 -0.311,0.639 -0.258,1.393 0.135,1.982 l 1.736,2.604 -1.924,1.924 -2.604,-1.736 C 22,24.905 21.613,24.792 21.225,24.792 c -0.297,0 -0.596,0.066 -0.871,0.199 -0.348,0.168 -0.705,0.32 -1.076,0.449 -0.668,0.232 -1.164,0.801 -1.303,1.496 l -0.615,3.066 h -2.72 l -0.613,-3.066 c -0.139,-0.695 -0.635,-1.264 -1.304,-1.496 -0.369,-0.129 -0.728,-0.279 -1.075,-0.447 -0.276,-0.135 -0.574,-0.201 -0.872,-0.201 -0.389,0 -0.775,0.113 -1.109,0.336 L 7.063,26.864 5.139,24.94 6.874,22.336 C 7.267,21.746 7.318,20.992 7.011,20.356 6.843,20.008 6.692,19.651 6.563,19.28 6.331,18.612 5.761,18.116 5.067,17.977 L 2.002,17.362 2,14.641 5.066,14.028 C 5.76,13.889 6.33,13.393 6.562,12.724 6.691,12.355 6.84,11.996 7.009,11.649 7.319,11.011 7.267,10.257 6.873,9.668 L 5.139,7.064 7.062,5.14 9.666,6.875 c 0.334,0.223 0.721,0.336 1.109,0.336 0.297,0 0.595,-0.066 0.871,-0.199 0.347,-0.168 0.705,-0.319 1.075,-0.448 0.669,-0.232 1.165,-0.802 1.304,-1.496 l 0.614,-3.065 2.72,-0.001 0.613,3.066 c 0.139,0.694 0.635,1.264 1.305,1.496 0.369,0.129 0.727,0.278 1.074,0.447 0.277,0.134 0.574,0.2 0.873,0.2 0.389,0 0.775,-0.113 1.109,-0.336 l 2.604,-1.735 1.924,1.924 -1.736,2.604 c -0.393,0.59 -0.443,1.343 -0.137,1.98 0.168,0.347 0.32,0.705 0.449,1.075 0.232,0.669 0.801,1.165 1.496,1.304 l 3.064,0.614 0.003,2.72 -3.066,0.614 z"
         inkscape:connector-curvature="0"
         style="fill:#ffffff;fill-opacity:0.60000002;stroke:none" />
      <path
         id="path4458"
         d="m 16,9.001 c -3.865,0 -7,3.135 -7,7 0,3.866 3.135,7 7,7 3.865,0 7,-3.135 7,-7 0,-3.865 -3.135,-7 -7,-7 z m 0,13.126 c -3.382,0 -6.125,-2.744 -6.125,-6.125 0,-3.382 2.743,-6.125 6.125,-6.125 3.381,0 6.125,2.743 6.125,6.125 0,3.381 -2.744,6.125 -6.125,6.125 z"
         inkscape:connector-curvature="0"
         style="fill:#ffffff;fill-opacity:0.60000002;stroke:none" />
      <path
         id="path4460"
         d="m 16,12.001 c -2.21,0 -4,1.79 -4,4 0,2.209 1.79,4 4,4 2.209,0 4,-1.791 4,-4 0,-2.209 -1.791,-4 -4,-4 z m 0,7.001 c -1.656,0 -3,-1.344 -3,-3 0,-1.656 1.344,-3 3,-3 1.656,0 3,1.344 3,3 0,1.656 -1.344,3 -3,3 z"
         inkscape:connector-curvature="0"
         style="fill:#ffffff;fill-opacity:0.60000002;stroke:none" />
    </g>
    <g
       id="tag"
       transform="matrix(2.2872127,0.6558477,-0.6558477,2.2872127,461.71238,123.96596)"
       style="fill:#ffffff;fill-opacity:0.60000002;stroke:none">
      <path
         id="path4474"
         d="m 31.391,13.883 -5,-8 C 25.661,4.714 24.379,4.003 23,4.003 H 4 c -2.209,0 -4,1.791 -4,4 v 16 c 0,2.209 1.791,4 4,4 h 19 c 1.379,0 2.66,-0.711 3.391,-1.881 l 5,-8 c 0.812,-1.295 0.812,-2.942 0,-4.239 z m -1.696,3.179 -5,8.002 C 24.328,25.652 23.693,26.003 23,26.003 H 4 c -1.103,0 -2,-0.898 -2,-2 v -16 c 0,-1.103 0.897,-2 2,-2 h 19 c 0.693,0 1.328,0.352 1.695,0.939 l 5,8 c 0.403,0.645 0.403,1.477 0,2.12 z"
         clip-rule="evenodd"
         inkscape:connector-curvature="0"
         style="fill:#ffffff;fill-opacity:0.60000002;fill-rule:evenodd;stroke:none" />
      <path
         id="path4476"
         d="m 23,13.003 c -1.658,0 -3,1.343 -3,3 0,1.657 1.342,3 3,3 1.656,0 3,-1.344 3,-3 0,-1.657 -1.344,-3 -3,-3 z m 0,5.001 c -1.105,0 -2,-0.896 -2,-2 0,-1.104 0.895,-2 2,-2 1.104,0 2,0.896 2,2 0,1.103 -0.896,2 -2,2 z"
         clip-rule="evenodd"
         inkscape:connector-curvature="0"
         style="fill:#ffffff;fill-opacity:0.60000002;fill-rule:evenodd;stroke:none" />
    </g>
    <path
       d="m 631.64923,423.91908 c -1.80946,-2.3982 -4.41256,-3.9867 -7.14448,-4.37064 -2.30454,-0.32388 -4.54623,0.23272 -6.31325,1.56196 l -7.10968,5.39986 c -0.0217,0.0152 -0.0451,0.0236 -0.0669,0.0402 -0.0116,0.009 -0.02,0.022 -0.0315,0.0295 l 0.003,0.003 -15.0888,11.46175 c -0.69415,0.51965 -1.24152,1.21128 -1.60284,1.99953 l -4.5358,10.46434 c -0.006,0.0291 -0.3226,0.85631 -0.38375,1.29137 -0.34744,2.47218 1.37827,4.76073 3.85428,5.10871 0.49264,0.0693 1.47902,-0.0322 1.51429,-0.0324 l 11.24923,-1.32756 c 0.85841,-0.12857 1.66954,-0.46869 2.36442,-0.99345 l 22.2968,-16.93913 c 4.05173,-3.05549 4.48852,-9.06955 0.9959,-13.69684 z m -20.93741,24.74017 c 0.0573,-1.16895 -0.10983,-2.34724 -0.4476,-3.49079 l 13.7987,-10.39693 c 0.41121,2.44049 -0.31231,4.83109 -2.16158,6.22576 -0.0116,0.009 -0.0253,0.0134 -0.0358,0.0224 l 0.0156,0.0191 -11.28959,8.57826 c 0.0447,-0.31862 0.10402,-0.62868 0.1203,-0.95783 z m -0.92595,-4.74806 c -0.36705,-0.85147 -0.80313,-1.68524 -1.38068,-2.45015 -0.67195,-0.89171 -1.48281,-1.6307 -2.34717,-2.27673 l 13.91125,-10.48289 c 0.89742,0.55934 1.72983,1.29353 2.42598,2.21735 0.59532,0.78699 1.02157,1.63503 1.32067,2.49653 l -13.93005,10.49589 z m -4.84689,-5.50136 c -1.11782,-0.64382 -2.32072,-1.09081 -3.56214,-1.28224 l 11.25256,-8.54692 c 1.71545,-1.2595 3.97204,-1.37427 6.06048,-0.53403 l -13.7509,10.36319 z m -10.47951,15.89626 c -0.14398,0.0129 -0.59322,0.0615 -0.89041,0.0406 -1.05003,-0.16063 -1.78338,-1.13534 -1.63556,-2.18716 0.0456,-0.21282 0.18327,-0.57057 0.23158,-0.7008 l 2.0333,-4.69099 c 1.46815,0.16588 2.96203,0.9565 4.02513,2.37033 1.08032,1.43059 1.44597,3.11828 1.17393,4.58977 l -4.93797,0.57826 z m 6.24531,-0.73508 c 0.21062,-1.72153 -0.23698,-3.60603 -1.44928,-5.21176 -1.14577,-1.52201 -2.78286,-2.53761 -4.5134,-2.85129 l 1.92313,-4.43637 c 0.13529,-0.29415 0.36091,-0.5717 0.62333,-0.80493 2.82511,-1.47674 6.6964,-0.3794 9.05282,2.75072 2.49333,3.30723 2.34413,7.61842 -0.24647,9.84057 -0.1594,0.0572 -0.31954,0.11035 -0.48743,0.13506 l -4.9027,0.578 z m 28.39057,-18.01653 -2.46001,1.86863 c 0.0407,-0.28919 0.11422,-0.562 0.12895,-0.86137 0.12276,-2.50766 -0.69495,-5.06399 -2.30645,-7.19949 -1.79133,-2.37869 -4.3871,-3.96354 -7.12307,-4.35588 l 2.41934,-1.83912 c 1.20951,-0.90914 2.77235,-1.28712 4.39104,-1.05962 2.05886,0.28935 4.0431,1.51815 5.44161,3.36796 1.31238,1.73855 1.956,3.7602 1.81732,5.69409 -0.13095,1.8045 -0.95122,3.36075 -2.30867,4.3848 z"
       id="pen"
       inkscape:connector-curvature="0"
       style="fill:#ffffff;fill-opacity:0.60000002;stroke:none" />
    <g
       id="search_1_"
       transform="matrix(2.0732536,0,0,2.0732536,529.96479,304.97739)"
       style="fill:#ffffff;fill-opacity:0.60000002;stroke:none">
      <path
         id="path4498"
         d="m 20,0.005 c -6.627,0 -12,5.373 -12,12 0,2.026 0.507,3.933 1.395,5.608 l -8.344,8.342 0.007,0.006 C 0.406,26.602 0,27.49 0,28.477 c 0,1.949 1.58,3.529 3.529,3.529 0.985,0 1.874,-0.406 2.515,-1.059 l -0.002,-0.002 8.341,-8.34 c 1.676,0.891 3.586,1.4 5.617,1.4 6.627,0 12,-5.373 12,-12 0,-6.627 -5.373,-12 -12,-12 z M 4.795,29.697 c -0.322,0.334 -0.768,0.543 -1.266,0.543 -0.975,0 -1.765,-0.789 -1.765,-1.764 0,-0.498 0.21,-0.943 0.543,-1.266 l -0.009,-0.008 8.066,-8.066 c 0.705,0.951 1.545,1.791 2.494,2.498 L 4.795,29.697 z M 20,22.006 c -5.522,0 -10,-4.479 -10,-10 0,-5.522 4.478,-10 10,-10 5.521,0 10,4.478 10,10 0,5.521 -4.479,10 -10,10 z"
         inkscape:connector-curvature="0"
         style="fill:#ffffff;fill-opacity:0.60000002;stroke:none" />
      <path
         id="path4500"
         d="m 20,5.005 c -3.867,0 -7,3.134 -7,7 0,0.276 0.224,0.5 0.5,0.5 0.276,0 0.5,-0.224 0.5,-0.5 0,-3.313 2.686,-6 6,-6 0.275,0 0.5,-0.224 0.5,-0.5 0,-0.276 -0.225,-0.5 -0.5,-0.5 z"
         inkscape:connector-curvature="0"
         style="fill:#ffffff;fill-opacity:0.60000002;stroke:none" />
    </g>
    <g
       id="location"
       transform="matrix(1.675205,0.7458493,-0.7458493,1.675205,548.92378,514.85239)"
       style="fill:#ffffff;fill-opacity:0.60000002;stroke:none">
      <path
         id="path4558"
         d="m 16.002,17.746 c 3.309,0 6,-2.692 6,-6 0,-3.308 -2.691,-6 -6,-6 -3.309,0 -6,2.691 -6,6 0,3.309 2.691,6 6,6 z m 0,-11 c 2.758,0 5,2.242 5,5 0,2.758 -2.242,5 -5,5 -2.758,0 -5,-2.242 -5,-5 0,-2.758 2.242,-5 5,-5 z"
         clip-rule="evenodd"
         inkscape:connector-curvature="0"
         style="fill:#ffffff;fill-opacity:0.60000002;fill-rule:evenodd;stroke:none" />
      <path
         id="path4560"
         d="M 16,0 C 9.382,0 4,5.316 4,12.001 c 0,7 6.001,14.161 10.376,19.194 0.016,0.02 0.718,0.805 1.586,0.805 0.002,0 0.073,0 0.077,0 0.867,0 1.57,-0.785 1.586,-0.805 C 22.002,26.162 28.002,19.002 28.002,12.001 28.002,5.316 22.619,0 16,0 z m 0.117,29.883 c -0.021,0.02 -0.082,0.064 -0.135,0.098 -0.01,-0.027 -0.084,-0.086 -0.129,-0.133 C 12.188,25.631 6,18.514 6,12.001 6,6.487 10.487,2 16,2 c 5.516,0 10.002,4.487 10.002,10.002 0,6.512 -6.188,13.629 -9.885,17.881 z"
         clip-rule="evenodd"
         inkscape:connector-curvature="0"
         style="fill:#ffffff;fill-opacity:0.60000002;fill-rule:evenodd;stroke:none" />
    </g>
    <g
       id="stack"
       transform="matrix(1.7576144,0,0,1.7576144,133.31436,153.95601)"
       style="fill:#ffffff;fill-opacity:0.60000002;stroke:none">
      <path
         id="path4591"
         d="M 31.924,18.455 27.922,3.449 C 27.68,2.596 26.889,2 26,2 H 16 6 C 5.11,2 4.32,2.596 4.078,3.449 L 0.076,18.455 C 0.025,18.637 0,18.82 0,19 v 7 c 0,2.209 1.791,4 4,4 h 24 c 2.209,0 4,-1.791 4,-4 v -7 c 0,-0.18 -0.025,-0.363 -0.076,-0.545 z M 30,26 c 0,1.102 -0.898,2 -2,2 H 4 C 2.897,28 2,27.102 2,26 V 19 L 6.001,3.999 H 25.998 L 30,19 v 7 z"
         inkscape:connector-curvature="0"
         style="fill:#ffffff;fill-opacity:0.60000002;stroke:none" />
      <path
         id="path4593"
         d="M 23.742,6 H 8.258 C 7.805,6 7.408,6.305 7.291,6.743 l -3.445,12 C 3.767,19.044 3.83,19.364 4.02,19.61 4.21,19.856 4.502,20 4.812,20 H 7.718 8.859 9.38 l 1.447,2.895 c 0.34,0.677 1.032,1.105 1.79,1.105 h 6.766 c 0.758,0 1.449,-0.428 1.789,-1.105 L 22.619,20 h 0.521 1.141 2.906 c 0.311,0 0.604,-0.145 0.793,-0.391 0.189,-0.246 0.252,-0.566 0.174,-0.867 l -3.445,-12 C 24.592,6.304 24.195,6 23.742,6 z m 0.539,12 h -1.662 c -0.762,0 -1.447,0.422 -1.789,1.105 L 19.383,22 H 12.617 L 11.17,19.105 C 10.828,18.422 10.143,18 9.381,18 H 7.719 5.334 L 8.258,7 h 15.484 l 2.924,11 h -2.385 z"
         inkscape:connector-curvature="0"
         style="fill:#ffffff;fill-opacity:0.60000002;stroke:none" />
    </g>
    <g
       id="monitor"
       transform="matrix(7.4464378,-2.6765357,2.6765357,7.4464378,1818.7385,333.96454)"
       style="fill:#ffffff;fill-opacity:0.60000002;stroke:none">
      <path
         id="path4642"
         d="M 27,4.996 5,5 C 4.447,5 4,5.443 4,5.996 v 14 c 0,0.553 0.447,1 1,1 h 22 c 0.553,0 1,-0.447 1,-1 v -14 c 0,-0.553 -0.447,-1 -1,-1 z M 27,20 H 5 V 5.996 H 27 V 20 z"
         inkscape:connector-curvature="0"
         style="fill:#ffffff;fill-opacity:0.60000002;stroke:none" />
      <path
         id="path4644"
         d="M 29,1 H 3 C 1.343,1 0,2.342 0,4 v 20 c 0,1.654 1.338,2.994 2.99,2.998 H 13 v 1.217 L 6.758,29.026 C 6.312,29.137 6,29.537 6,29.996 c 0,0.553 0.447,1 1,1 h 18 c 0.553,0 1,-0.447 1,-1 0,-0.459 -0.312,-0.859 -0.758,-0.971 L 19,28.215 V 26.998 H 29.01 C 30.662,26.994 32,25.654 32,24 V 4 C 32,2.342 30.656,1 29,1 z m 1,23 c 0,0.551 -0.449,1 -1,1 H 20 12 3 C 2.448,25 2,24.551 2,24 V 4 C 2,3.448 2.448,3 3,3 h 26 c 0.551,0 1,0.448 1,1 v 20 z"
         inkscape:connector-curvature="0"
         style="fill:#ffffff;fill-opacity:0.60000002;stroke:none" />
    </g>
    <path
       d="m 1746.5904,352.43222 -57.2836,19.0413 c -5.2725,1.75262 -8.1256,7.45078 -6.3738,12.7209 l 10.3141,31.0286 c 1.7526,5.27251 7.4482,8.12645 12.7208,6.37378 l 57.2836,-19.04131 c 5.2725,-1.75261 8.1264,-7.4484 6.3738,-12.72088 l -10.3141,-31.02868 c -1.7518,-5.27007 -7.4481,-8.12645 -12.7208,-6.37371 z m -57.892,33.15892 20.8706,6.97787 -12.5401,18.08375 -8.3305,-25.06162 z m 76.1533,5.83027 c 0.8759,2.63504 -0.5566,5.48606 -3.1869,6.36041 l -57.2837,19.04131 c -2.6326,0.87508 -5.4845,-0.55182 -6.3604,-3.18684 l 14.0325,-20.23639 13.0255,4.35609 c 1.588,0.52704 3.2591,0.50699 4.7723,0.004 1.5109,-0.50223 2.8622,-1.48419 3.8178,-2.85938 l 7.8282,-11.28795 23.3547,7.80877 0,0 z m -0.9918,-2.98352 -20.8731,-6.97707 12.5426,-18.08456 8.3305,25.06163 z m -32.2578,5.02924 c -0.6252,0.90227 -1.5038,1.56008 -2.5446,1.90605 -1.0406,0.3459 -2.1413,0.3434 -3.1814,-0.003 l -12.3306,-4.12328 -2.4841,-0.83084 -23.3539,-7.80642 0,-0.003 c -0.8751,-2.63267 0.5542,-5.48527 3.1869,-6.36041 l 57.2836,-19.04132 c 2.6303,-0.87427 5.4854,0.5542 6.3605,3.18686 l -22.9357,33.07442 z"
       id="mail"
       inkscape:connector-curvature="0"
       style="fill:#ffffff;fill-opacity:0.60000002;stroke:none" />
    <g
       transform="matrix(0.98862792,0.15038233,-0.15038233,0.98862792,0,0)"
       style="font-size:40px;font-style:normal;font-weight:normal;line-height:125%;letter-spacing:0px;word-spacing:0px;fill:#ffffff;fill-opacity:0.60000002;stroke:none;font-family:Sans"
       id="text3821">
      <path
         d="m 391.11725,562.77777 -1.95313,0 -0.0195,-5.87891 c -1.3672,-0.026 -2.73438,-0.18229 -4.10156,-0.46875 -1.36719,-0.29947 -2.74089,-0.74218 -4.12109,-1.32812 l 0,-3.51563 c 1.32812,0.83334 2.66926,1.46485 4.02343,1.89454 1.36718,0.41667 2.77343,0.63151 4.21875,0.64453 l 0,-8.90625 c -2.87761,-0.46874 -4.97396,-1.26301 -6.28906,-2.38282 -1.30209,-1.11977 -1.95313,-2.65623 -1.95312,-4.60937 -1e-5,-2.12238 0.70963,-3.79555 2.1289,-5.01953 1.41927,-1.22393 3.45702,-1.92706 6.11328,-2.10938 l 0,-4.58984 1.95313,0 0,4.53125 c 1.21092,0.0521 2.3828,0.18232 3.51562,0.39062 1.1328,0.19534 2.23957,0.46878 3.32032,0.82032 l 0,3.41797 c -1.08075,-0.54686 -2.19403,-0.97003 -3.33985,-1.26954 -1.13283,-0.29945 -2.29819,-0.47523 -3.49609,-0.52734 l 0,8.33984 c 2.95571,0.45575 5.13019,1.26955 6.52344,2.44141 1.3932,1.17189 2.08982,2.77345 2.08984,4.80469 -2e-5,2.20052 -0.74221,3.9388 -2.22656,5.21484 -1.47138,1.26302 -3.60028,1.99219 -6.38672,2.1875 l 0,5.91797 m -1.95313,-20.91797 0,-8.00781 c -1.51042,0.16929 -2.66277,0.59898 -3.45703,1.28906 -0.79428,0.69013 -1.19141,1.6081 -1.1914,2.75391 -1e-5,1.11981 0.36457,1.9922 1.09375,2.61719 0.74217,0.62501 1.92707,1.07423 3.55468,1.34765 m 1.95313,3.75 0,8.45703 c 1.65363,-0.22135 2.89712,-0.6901 3.73047,-1.40625 0.84633,-0.71614 1.26951,-1.66015 1.26953,-2.83203 -2e-5,-1.14582 -0.40367,-2.05728 -1.21094,-2.73437 -0.79429,-0.67708 -2.05731,-1.17187 -3.78906,-1.48438"
         style="fill:#ffffff;fill-opacity:0.60000002"
         id="path4423" />
      <path
         d="m 416.78131,545.90277 c -2.90366,10e-6 -4.91537,0.33204 -6.03516,0.99609 -1.11979,0.66408 -1.67969,1.79689 -1.67968,3.39844 -10e-6,1.27605 0.41666,2.29167 1.25,3.04688 0.84634,0.74219 1.99218,1.11328 3.4375,1.11328 1.99217,0 3.58722,-0.70312 4.78515,-2.10938 1.21092,-1.41926 1.81639,-3.30077 1.81641,-5.64453 l 0,-0.80078 -3.57422,0 m 7.16797,-1.48437 0,12.48046 -3.59375,0 0,-3.32031 c -0.82033,1.32813 -1.84246,2.3112 -3.06641,2.94922 -1.22397,0.625 -2.72136,0.9375 -4.49218,0.9375 -2.23959,0 -4.02345,-0.625 -5.35157,-1.875 -1.3151,-1.26302 -1.97266,-2.94921 -1.97265,-5.05859 -10e-6,-2.46093 0.82031,-4.3164 2.46093,-5.56641 1.65364,-1.24999 4.11458,-1.87499 7.38282,-1.875 l 5.03906,0 0,-0.35156 c -2e-5,-1.65363 -0.54689,-2.92967 -1.64063,-3.82813 -1.08074,-0.91144 -2.60417,-1.36716 -4.57031,-1.36718 -1.25001,2e-5 -2.46745,0.14975 -3.65234,0.44921 -1.1849,0.2995 -2.32423,0.74872 -3.41797,1.34766 l 0,-3.32031 c 1.3151,-0.50779 2.59114,-0.8854 3.82812,-1.13281 1.23697,-0.2604 2.4414,-0.39061 3.61329,-0.39063 3.16404,2e-5 5.52732,0.82034 7.08984,2.46094 1.56248,1.64064 2.34373,4.12762 2.34375,7.46094"
         style="fill:#ffffff;fill-opacity:0.60000002"
         id="path4425" />
      <path
         d="m 429.28131,535.02386 3.59375,0 4.49219,17.07032 4.47265,-17.07032 4.23829,0 4.49218,17.07032 4.47266,-17.07032 3.59375,0 -5.72266,21.875 -4.23828,0 -4.70703,-17.92968 -4.72656,17.92968 -4.23828,0 -5.72266,-21.875"
         style="fill:#ffffff;fill-opacity:0.60000002"
         id="path4427" />
      <path
         d="m 482.81647,545.06293 0,1.75781 -16.52344,0 c 0.15624,2.47397 0.89843,4.36198 2.22656,5.66406 1.34114,1.28907 3.20312,1.9336 5.58594,1.9336 1.38019,0 2.71483,-0.16927 4.00391,-0.50782 1.30206,-0.33853 2.59112,-0.84635 3.86718,-1.52343 l 0,3.39843 c -1.28908,0.54688 -2.61069,0.96355 -3.96484,1.25 -1.35418,0.28646 -2.72788,0.42969 -4.12109,0.42969 -3.4896,0 -6.25652,-1.01562 -8.30079,-3.04687 -2.03125,-2.03125 -3.04687,-4.77864 -3.04687,-8.24219 0,-3.58072 0.96354,-6.41926 2.89062,-8.51563 1.9401,-2.10935 4.55078,-3.16404 7.83204,-3.16406 2.94269,2e-5 5.2669,0.95054 6.97265,2.85156 1.71873,1.88804 2.5781,4.45965 2.57813,7.71485 m -3.59375,-1.05469 c -0.0261,-1.96613 -0.57945,-3.53514 -1.66016,-4.70703 -1.06772,-1.17186 -2.48699,-1.75779 -4.25781,-1.75781 -2.00522,2e-5 -3.61329,0.56642 -4.82422,1.69921 -1.19792,1.13283 -1.88803,2.72788 -2.07031,4.78516 l 12.8125,-0.0195"
         style="fill:#ffffff;fill-opacity:0.60000002"
         id="path4429" />
      <path
         d="m 502.66022,535.6684 0,3.39843 c -1.01564,-0.52081 -2.07033,-0.91144 -3.16407,-1.17187 -1.09376,-0.2604 -2.22657,-0.39061 -3.39843,-0.39063 -1.78387,2e-5 -3.12501,0.27346 -4.02344,0.82032 -0.88542,0.54689 -1.32813,1.3672 -1.32813,2.46093 0,0.83335 0.31901,1.4909 0.95704,1.97266 0.63801,0.46876 1.92056,0.91798 3.84765,1.34766 l 1.23047,0.27343 c 2.55207,0.54689 4.36196,1.32163 5.42969,2.32422 1.08071,0.98959 1.62107,2.37631 1.62109,4.16016 -2e-5,2.03125 -0.80731,3.63932 -2.42187,4.82422 -1.60158,1.18489 -3.80861,1.77734 -6.6211,1.77734 -1.17188,0 -2.39584,-0.11719 -3.67187,-0.35156 -1.26303,-0.22136 -2.59766,-0.5599 -4.00391,-1.01563 l 0,-3.71093 c 1.32812,0.6901 2.63672,1.21094 3.92578,1.5625 1.28906,0.33854 2.5651,0.50781 3.82813,0.50781 1.6927,0 2.99478,-0.28646 3.90625,-0.85938 0.91144,-0.58593 1.36717,-1.40624 1.36719,-2.46093 -2e-5,-0.97656 -0.33205,-1.72526 -0.9961,-2.2461 -0.65105,-0.52082 -2.08985,-1.02212 -4.3164,-1.5039 l -1.25,-0.29297 c -2.22657,-0.46874 -3.83464,-1.18489 -4.82422,-2.14844 -0.98959,-0.97655 -1.48438,-2.31118 -1.48438,-4.00391 0,-2.05727 0.72917,-3.64581 2.1875,-4.76562 1.45833,-1.11977 3.52864,-1.67967 6.21094,-1.67969 1.32811,2e-5 2.57811,0.0977 3.75,0.29297 1.17186,0.19533 2.25259,0.4883 3.24219,0.87891"
         style="fill:#ffffff;fill-opacity:0.60000002"
         id="path4431" />
      <path
         d="m 518.05084,537.5434 c -1.92709,2e-5 -3.45053,0.75522 -4.57031,2.26562 -1.1198,1.49741 -1.67969,3.5547 -1.67969,6.17188 0,2.61719 0.55338,4.68099 1.66016,6.1914 1.11978,1.4974 2.64973,2.2461 4.58984,2.2461 1.91405,0 3.43098,-0.75521 4.55078,-2.26563 1.11978,-1.51041 1.67967,-3.5677 1.67969,-6.17187 -2e-5,-2.59114 -0.55991,-4.64192 -1.67969,-6.15235 -1.1198,-1.52342 -2.63673,-2.28513 -4.55078,-2.28515 m 0,-3.04688 c 3.12499,2e-5 5.57941,1.01565 7.36328,3.04688 1.78384,2.03126 2.67576,4.84376 2.67578,8.4375 -2e-5,3.58073 -0.89194,6.39323 -2.67578,8.4375 -1.78387,2.03125 -4.23829,3.04687 -7.36328,3.04687 -3.13803,0 -5.59896,-1.01562 -7.38281,-3.04687 -1.77084,-2.04427 -2.65625,-4.85677 -2.65625,-8.4375 0,-3.59374 0.88541,-6.40624 2.65625,-8.4375 1.78385,-2.03123 4.24478,-3.04686 7.38281,-3.04688"
         style="fill:#ffffff;fill-opacity:0.60000002"
         id="path4433" />
      <path
         d="m 551.05865,539.22308 c 0.89842,-1.61456 1.97264,-2.80597 3.22266,-3.57422 1.24998,-0.7682 2.72133,-1.15232 4.41406,-1.15234 2.27862,2e-5 4.03643,0.8008 5.27344,2.40234 1.23695,1.58856 1.85543,3.85419 1.85547,6.79688 l 0,13.20312 -3.61328,0 0,-13.08593 c -3e-5,-2.09634 -0.37113,-3.65233 -1.11328,-4.66797 -0.74222,-1.01561 -1.87503,-1.52342 -3.39844,-1.52344 -1.862,2e-5 -3.33336,0.61851 -4.41406,1.85547 -1.08075,1.237 -1.62112,2.92319 -1.6211,5.05859 l 0,12.36328 -3.61328,0 0,-13.08593 c -2e-5,-2.10936 -0.37111,-3.66535 -1.11328,-4.66797 -0.7422,-1.01561 -1.88803,-1.52342 -3.4375,-1.52344 -1.83595,2e-5 -3.29428,0.62502 -4.375,1.875 -1.08074,1.237 -1.6211,2.91668 -1.62109,5.03906 l 0,12.36328 -3.61328,0 0,-21.875 3.61328,0 0,3.39844 c 0.8203,-1.34112 1.80337,-2.33071 2.94922,-2.96875 1.14582,-0.638 2.50649,-0.95701 4.08203,-0.95703 1.58852,2e-5 2.93618,0.40367 4.04297,1.21094 1.11977,0.80731 1.94659,1.97918 2.48046,3.51562"
         style="fill:#ffffff;fill-opacity:0.60000002"
         id="path4435" />
      <path
         d="m 591.72272,545.06293 0,1.75781 -16.52344,0 c 0.15624,2.47397 0.89843,4.36198 2.22656,5.66406 1.34114,1.28907 3.20312,1.9336 5.58594,1.9336 1.38019,0 2.71483,-0.16927 4.00391,-0.50782 1.30206,-0.33853 2.59112,-0.84635 3.86718,-1.52343 l 0,3.39843 c -1.28908,0.54688 -2.61069,0.96355 -3.96484,1.25 -1.35418,0.28646 -2.72788,0.42969 -4.12109,0.42969 -3.4896,0 -6.25652,-1.01562 -8.30079,-3.04687 -2.03125,-2.03125 -3.04687,-4.77864 -3.04687,-8.24219 0,-3.58072 0.96354,-6.41926 2.89062,-8.51563 1.9401,-2.10935 4.55078,-3.16404 7.83204,-3.16406 2.94269,2e-5 5.2669,0.95054 6.97265,2.85156 1.71873,1.88804 2.5781,4.45965 2.57813,7.71485 m -3.59375,-1.05469 c -0.0261,-1.96613 -0.57945,-3.53514 -1.66016,-4.70703 -1.06772,-1.17186 -2.48699,-1.75779 -4.25781,-1.75781 -2.00522,2e-5 -3.61329,0.56642 -4.82422,1.69921 -1.19792,1.13283 -1.88803,2.72788 -2.07031,4.78516 l 12.8125,-0.0195"
         style="fill:#ffffff;fill-opacity:0.60000002"
         id="path4437" />
    </g>
    <g
       transform="matrix(0.96267986,0.27064273,-0.27064273,0.96267986,0,0)"
       style="font-size:40px;font-style:normal;font-weight:normal;line-height:125%;letter-spacing:0px;word-spacing:0px;fill:#ffffff;fill-opacity:0.60000002;stroke:none;font-family:Sans"
       id="text3829">
      <path
         d="m 285.37427,11.619259 -20.15625,7.167969 20.15625,7.128906 0,3.554687 -25.03906,-9.082031 0,-3.242187 25.03906,-9.0820316 0,3.5546876"
         style="fill:#ffffff;fill-opacity:0.60000002"
         id="path4440" />
      <path
         d="m 297.24927,26.345821 3.96484,0 0,4.960938 -3.96484,0 0,-4.960938 m 3.84765,-2.871093 -3.73046,0 0,-3.007813 c -1e-5,-1.315092 0.18228,-2.39582 0.54687,-3.242187 0.36457,-0.84634 1.1328,-1.829412 2.30469,-2.949219 l 1.75781,-1.738281 c 0.74217,-0.690085 1.27603,-1.341126 1.60156,-1.953125 0.33853,-0.6119582 0.5078,-1.2369576 0.50782,-1.8750004 -2e-5,-1.1588304 -0.42971,-2.0963294 -1.28907,-2.8125 -0.84636,-0.7161197 -1.97266,-1.0741922 -3.3789,-1.0742187 -1.02866,2.65e-5 -2.12892,0.2278908 -3.30078,0.6835937 -1.15886,0.4557545 -2.3698,1.1198164 -3.63282,1.9921875 l 0,-3.671875 c 1.22396,-0.7421592 2.46093,-1.2955441 3.71094,-1.6601562 1.26301,-0.3645538 2.5651,-0.5468453 3.90625,-0.546875 2.39582,2.97e-5 4.31639,0.6315395 5.76172,1.8945312 1.45831,1.2630474 2.18748,2.9297124 2.1875,5 -2e-5,0.9896052 -0.23439,1.9336149 -0.70313,2.8320309 -0.46876,0.885436 -1.28908,1.888039 -2.46093,3.007813 l -1.71875,1.679687 c -0.612,0.611994 -1.04819,1.093765 -1.3086,1.445313 -0.24741,0.338555 -0.42319,0.670586 -0.52734,0.996094 -0.0781,0.27345 -0.13673,0.605481 -0.17578,0.996093 -0.0391,0.390637 -0.0586,0.92449 -0.0586,1.601563 l 0,2.402344"
         style="fill:#ffffff;fill-opacity:0.60000002"
         id="path4442" />
      <path
         d="m 318.10864,28.025509 0,11.601562 -3.61328,0 0,-30.1953121 3.61328,0 0,3.3203121 c 0.7552,-1.302063 1.70572,-2.265604 2.85157,-2.8906246 1.15884,-0.6379988 2.53904,-0.9570089 4.14062,-0.9570313 2.65623,2.24e-5 4.81118,1.0547089 6.46484,3.1640629 1.66665,2.109392 2.49998,4.882826 2.5,8.320312 -2e-5,3.437508 -0.83335,6.210942 -2.5,8.320313 -1.65366,2.109375 -3.80861,3.164062 -6.46484,3.164062 -1.60158,0 -2.98178,-0.3125 -4.14062,-0.9375 -1.14585,-0.63802 -2.09637,-1.608071 -2.85157,-2.910156 m 12.22657,-7.636719 c -2e-5,-2.643215 -0.5469,-4.713526 -1.64063,-6.210937 -1.08075,-1.510398 -2.57163,-2.265606 -4.47266,-2.265625 -1.90105,1.9e-5 -3.39844,0.755227 -4.49218,2.265625 -1.08074,1.497411 -1.6211,3.567722 -1.6211,6.210937 0,2.643238 0.54036,4.720058 1.6211,6.230469 1.09374,1.497399 2.59113,2.246096 4.49218,2.246094 1.90103,2e-6 3.39191,-0.748695 4.47266,-2.246094 1.09373,-1.510411 1.64061,-3.587231 1.64063,-6.230469"
         style="fill:#ffffff;fill-opacity:0.60000002"
         id="path4444" />
      <path
         d="m 358.2063,18.103634 0,13.203125 -3.59375,0 0,-13.085938 c -2e-5,-2.070297 -0.40366,-3.619775 -1.21094,-4.648437 -0.80731,-1.028627 -2.01824,-1.54295 -3.63281,-1.542969 -1.94012,1.9e-5 -3.47006,0.618508 -4.58984,1.855469 -1.1198,1.236995 -1.6797,2.923191 -1.67969,5.058594 l 0,12.363281 -3.61328,0 0,-30.39062512 3.61328,0 0,11.91406212 c 0.85936,-1.315084 1.86848,-2.298156 3.02734,-2.9492184 1.17186,-0.6510196 2.51952,-0.9765401 4.04297,-0.9765625 2.513,2.24e-5 4.41404,0.7812717 5.70313,2.3437499 1.28904,1.549498 1.93357,3.834652 1.93359,6.855469"
         style="fill:#ffffff;fill-opacity:0.60000002"
         id="path4446" />
      <path
         d="m 368.88989,28.025509 0,11.601562 -3.61328,0 0,-30.1953121 3.61328,0 0,3.3203121 c 0.7552,-1.302063 1.70572,-2.265604 2.85157,-2.8906246 1.15884,-0.6379988 2.53904,-0.9570089 4.14062,-0.9570313 2.65623,2.24e-5 4.81118,1.0547089 6.46484,3.1640629 1.66665,2.109392 2.49998,4.882826 2.5,8.320312 -2e-5,3.437508 -0.83335,6.210942 -2.5,8.320313 -1.65366,2.109375 -3.80861,3.164062 -6.46484,3.164062 -1.60158,0 -2.98178,-0.3125 -4.14062,-0.9375 -1.14585,-0.63802 -2.09637,-1.608071 -2.85157,-2.910156 m 12.22657,-7.636719 c -2e-5,-2.643215 -0.5469,-4.713526 -1.64063,-6.210937 -1.08075,-1.510398 -2.57163,-2.265606 -4.47266,-2.265625 -1.90105,1.9e-5 -3.39844,0.755227 -4.49218,2.265625 -1.08074,1.497411 -1.6211,3.567722 -1.6211,6.210937 0,2.643238 0.54036,4.720058 1.6211,6.230469 1.09374,1.497399 2.59113,2.246096 4.49218,2.246094 1.90103,2e-6 3.39191,-0.748695 4.47266,-2.246094 1.09373,-1.510411 1.64061,-3.587231 1.64063,-6.230469"
         style="fill:#ffffff;fill-opacity:0.60000002"
         id="path4448" />
    </g>
    <g
       transform="matrix(0.86261079,-0.35239933,0.29233547,1.0398446,0,0)"
       style="font-size:67.12226105000002008px;font-style:normal;font-weight:normal;line-height:125%;letter-spacing:0px;word-spacing:0px;fill:#ffffff;fill-opacity:0.60000002;stroke:none;font-family:Sans"
       id="text3833">
      <path
         d="m 1688.7626,1242.5571 6.6532,0 0,8.3247 -6.6532,0 0,-8.3247 m 6.4566,-4.8179 -6.26,0 0,-5.0472 c 0,-2.2068 0.3059,-4.0204 0.9177,-5.4406 0.6118,-1.4202 1.9009,-3.0699 3.8674,-4.949 l 2.9497,-2.9169 c 1.2454,-1.158 2.1413,-2.2505 2.6876,-3.2775 0.568,-1.0269 0.8521,-2.0756 0.8521,-3.1463 0,-1.9446 -0.7211,-3.5178 -2.1631,-4.7195 -1.4203,-1.2017 -3.3103,-1.8026 -5.67,-1.8026 -1.7262,0 -3.5725,0.3824 -5.5389,1.1471 -1.9447,0.7647 -3.9767,1.8791 -6.0961,3.343 l 0,-6.1616 c 2.0539,-1.2454 4.1296,-2.174 6.2272,-2.7859 2.1194,-0.6117 4.3043,-0.9176 6.5549,-0.9177 4.0203,10e-5 7.2431,1.0598 9.6685,3.1792 2.4471,2.1194 3.6707,4.9162 3.6707,8.3902 0,1.6607 -0.3933,3.2448 -1.1799,4.7524 -0.7866,1.4858 -2.1631,3.1682 -4.1296,5.0472 l -2.8841,2.8186 c -1.027,1.027 -1.7589,1.8354 -2.1959,2.4254 -0.4152,0.5681 -0.7101,1.1252 -0.8849,1.6715 -0.1311,0.4588 -0.2295,1.016 -0.295,1.6715 -0.066,0.6555 -0.098,1.5513 -0.098,2.6875 l 0,4.0312"
         style="fill:#ffffff;fill-opacity:0.60000002"
         id="path4451" />
      <path
         d="m 1718.7185,1217.8451 0,-5.965 42.017,15.2402 0,5.4406 -42.017,15.2401 0,-5.9649 33.7578,-11.9627 -33.7578,-12.0283"
         style="fill:#ffffff;fill-opacity:0.60000002"
         id="path4453" />
    </g>
    <g
       style="font-size:40px;font-style:normal;font-variant:normal;font-weight:normal;font-stretch:normal;line-height:125%;letter-spacing:0px;word-spacing:0px;fill:#ffffff;fill-opacity:0.60000002;stroke:none;font-family:FontAwesome;-inkscape-font-specification:FontAwesome"
       id="text3054" />
    <g
       style="font-size:40px;font-style:normal;font-variant:normal;font-weight:normal;font-stretch:normal;line-height:125%;letter-spacing:0px;word-spacing:0px;fill:#ffffff;fill-opacity:0.60000002;stroke:none;font-family:FontAwesome;-inkscape-font-specification:FontAwesome"
       id="text3058" />
    <g
       style="font-size:40px;font-style:normal;font-variant:normal;font-weight:normal;font-stretch:normal;line-height:125%;letter-spacing:0px;word-spacing:0px;fill:#ffffff;fill-opacity:0.60000002;stroke:none;font-family:FontAwesome;-inkscape-font-specification:FontAwesome"
       id="text3066" />
    <g
       transform="scale(1.1032059,0.90644911)"
       style="font-size:110.73151398000001677px;font-style:normal;font-variant:normal;font-weight:normal;font-stretch:normal;line-height:125%;letter-spacing:0px;word-spacing:0px;fill:#ffffff;fill-opacity:0.60000002;stroke:none;font-family:FontAwesome;-inkscape-font-specification:FontAwesome"
       id="text3070">
      <path
         d="m 232.56432,327.43139 c 0.78268,-0.7827 1.17403,-1.70958 1.17405,-2.78065 -2e-5,-1.07106 -0.39137,-1.99794 -1.17405,-2.78064 -0.78272,-0.7827 -1.7096,-1.17405 -2.78064,-1.17406 -1.07108,1e-5 -1.99797,0.39136 -2.78065,1.17406 -0.78272,0.7827 -1.17407,1.70958 -1.17405,2.78064 -2e-5,1.07107 0.39133,1.99795 1.17405,2.78065 0.78268,0.7827 1.70957,1.17405 2.78065,1.17405 1.07104,0 1.99792,-0.39135 2.78064,-1.17405 m 40.96819,-28.73335 -42.14224,42.14224 c -1.52422,1.52419 -3.37799,2.2863 -5.56129,2.28631 -2.14214,-1e-5 -4.0165,-0.76212 -5.62308,-2.28631 l -6.54997,-6.67355 c -1.5654,-1.48301 -2.3481,-3.33678 -2.3481,-5.56129 0,-2.18332 0.7827,-4.05768 2.3481,-5.62309 l 42.08045,-42.08044 c 1.60654,4.03713 3.95464,7.62107 7.0443,10.75183 3.13075,3.08964 6.71469,5.43774 10.75183,7.0443 m 39.17622,-26.87958 c -10e-5,1.60665 -0.47384,3.78997 -1.42122,6.54997 -1.93625,5.52014 -5.33482,10.01037 -10.1957,13.47069 -4.81988,3.41919 -10.134,5.12877 -15.94238,5.12874 -7.62109,3e-5 -14.15046,-2.69822 -19.5881,-8.09477 -5.39657,-5.43766 -8.09482,-11.96702 -8.09477,-19.58811 -5e-5,-7.62096 2.6982,-14.12972 8.09477,-19.52631 5.43764,-5.43763 11.96701,-8.15648 19.5881,-8.15656 2.38922,8e-5 4.8815,0.35024 7.47685,1.05046 2.63638,0.6592 4.8609,1.60668 6.67355,2.84244 0.65903,0.45323 0.98859,1.02995 0.98868,1.73018 -9e-5,0.70039 -0.32965,1.27712 -0.98868,1.73018 l -18.10509,10.44287 0,13.84144 11.92588,6.61176 c 0.20589,-0.12354 1.83308,-1.11221 4.88158,-2.96602 3.04832,-1.89491 5.82896,-3.56329 8.34194,-5.00517 2.55397,-1.48295 4.01639,-2.22445 4.38724,-2.22451 0.61782,6e-5 1.09156,0.20603 1.42122,0.61792 0.37065,0.412 0.55603,0.92694 0.55613,1.5448"
         style="fill:#ffffff;fill-opacity:0.60000002"
         id="path4459" />
    </g>
    <g
       transform="matrix(0.87341275,-0.13288654,0.19843497,1.1147429,0,0)"
       style="font-size:46.62283707000000277px;font-style:normal;font-variant:normal;font-weight:normal;font-stretch:normal;line-height:125%;letter-spacing:0px;word-spacing:0px;fill:#ffffff;fill-opacity:0.60000002;stroke:none;font-family:FontAwesome;-inkscape-font-specification:FontAwesome"
       id="text3074">
      <path
         d="m 1825.6129,425.9049 0,-0.10407 -0.6244,-8.3255 c -0.017,-0.22546 -0.1128,-0.41626 -0.2862,-0.57238 -0.1735,-0.17343 -0.373,-0.26015 -0.5984,-0.26018 l -4.8392,0 c -0.2255,3e-5 -0.425,0.0867 -0.5984,0.26018 -0.1735,0.15612 -0.2689,0.34692 -0.2862,0.57238 l -0.6244,8.3255 0,0.10407 c -0.017,0.20815 0.052,0.3816 0.2081,0.52034 0.1561,0.13878 0.3382,0.20816 0.5464,0.20814 l 6.3482,0 c 0.2081,2e-5 0.3902,-0.0694 0.5463,-0.20814 0.1561,-0.13874 0.2255,-0.31219 0.2082,-0.52034 m 19.747,12.15004 c 0,1.26617 -0.3989,1.89925 -1.1967,1.89925 l -18.3162,0 c 0.2255,0 0.4163,-0.078 0.5724,-0.23415 0.1561,-0.17345 0.2255,-0.37291 0.2082,-0.5984 l -0.5204,-6.6604 c -0.017,-0.22548 -0.1128,-0.41627 -0.2862,-0.57238 -0.1735,-0.17344 -0.3729,-0.26017 -0.5984,-0.26017 l -7.0767,0 c -0.2255,0 -0.4249,0.0867 -0.5984,0.26017 -0.1734,0.15611 -0.2688,0.3469 -0.2861,0.57238 l -0.5204,6.6604 c -0.017,0.22549 0.052,0.42495 0.2082,0.5984 0.156,0.1561 0.3468,0.23415 0.5723,0.23415 l -18.3161,0 c -0.7978,0 -1.1968,-0.63308 -1.1968,-1.89925 0,-0.93662 0.2255,-1.94262 0.6765,-3.018 l 10.8491,-27.16196 c 0.1388,-0.32952 0.3643,-0.61571 0.6765,-0.85857 0.3122,-0.2428 0.6417,-0.36421 0.9886,-0.36424 l 8.8199,0 c -0.2255,3e-5 -0.425,0.0867 -0.5984,0.26017 -0.1735,0.15613 -0.2689,0.34693 -0.2862,0.57238 l -0.3903,4.9953 c -0.017,0.24286 0.052,0.44232 0.2082,0.5984 0.1561,0.15613 0.3469,0.23418 0.5724,0.23415 l 4.3188,0 c 0.2255,3e-5 0.4163,-0.078 0.5724,-0.23415 0.1561,-0.15608 0.2254,-0.35554 0.2081,-0.5984 l -0.3902,-4.9953 c -0.017,-0.22545 -0.1128,-0.41625 -0.2862,-0.57238 -0.1735,-0.17342 -0.373,-0.26014 -0.5984,-0.26017 l 8.8198,0 c 0.3469,3e-5 0.6764,0.12144 0.9887,0.36424 0.3121,0.24286 0.5376,0.52905 0.6764,0.85857 l 10.8492,27.16196 c 0.4509,1.07538 0.6764,2.08138 0.6764,3.018"
         style="fill:#ffffff;fill-opacity:0.60000002"
         id="path4462" />
    </g>
    <g
       transform="scale(1.0781164,0.92754363)"
       style="font-size:51.58047103999999905px;font-style:normal;font-variant:normal;font-weight:normal;font-stretch:normal;line-height:125%;letter-spacing:0px;word-spacing:0px;fill:#ffffff;fill-opacity:0.60000002;stroke:none;font-family:FontAwesome;-inkscape-font-specification:FontAwesome"
       id="text3078">
      <path
         d="m 422.88184,327.84587 c 0.53726,-0.53726 0.80591,-1.1897 0.80595,-1.95729 -4e-5,-0.76754 -0.26869,-1.41997 -0.80595,-1.9573 -0.53733,-0.53726 -1.18976,-0.80591 -1.95729,-0.80594 -0.7676,3e-5 -1.42004,0.26868 -1.95729,0.80594 -0.53734,0.53733 -0.80599,1.18976 -0.80595,1.9573 -4e-5,0.76759 0.26861,1.42003 0.80595,1.95729 0.53725,0.53733 1.18969,0.80598 1.95729,0.80595 0.76753,3e-5 1.41996,-0.26862 1.95729,-0.80595 m 7.25351,-10.24701 c -5e-5,4.77814 -0.72924,8.9134 -2.18757,12.40579 -1.43923,3.47327 -3.86665,6.92731 -7.28228,10.36215 -1.55436,1.53515 -3.4253,3.22379 -5.61283,5.06594 l -0.57568,10.90904 c -0.0384,0.30703 -0.19192,0.55649 -0.46054,0.74838 l -11.05296,6.44756 c -0.13434,0.0768 -0.28785,0.11512 -0.46054,0.11513 -0.23029,-10e-6 -0.45096,-0.0864 -0.66202,-0.25905 l -1.84216,-1.84216 c -0.24948,-0.26866 -0.32624,-0.57568 -0.23027,-0.92108 l 2.44662,-7.94432 -8.08824,-8.08823 -7.94431,2.44662 c -0.0576,0.0192 -0.14392,0.0288 -0.25905,0.0288 -0.26866,10e-6 -0.48933,-0.0863 -0.66203,-0.25905 l -1.84216,-1.84216 c -0.32622,-0.36458 -0.37419,-0.73877 -0.14392,-1.12257 l 6.44756,-11.05295 c 0.19188,-0.26863 0.44134,-0.42214 0.74838,-0.46054 l 10.90904,-0.57568 c 1.84214,-2.18754 3.53078,-4.05848 5.06594,-5.61283 3.60753,-3.58834 7.04239,-6.06374 10.30458,-7.42621 3.26212,-1.36239 7.39738,-2.0436 12.40579,-2.04364 0.2686,4e-5 0.49887,0.096 0.69081,0.28784 0.19184,0.17274 0.28779,0.38382 0.28784,0.63324"
         style="fill:#ffffff;fill-opacity:0.60000002"
         id="path4465" />
    </g>
    <g
       transform="matrix(0.95675874,-0.09792383,0.10586631,1.0343602,0,0)"
       style="font-size:98.01868439000000421px;font-style:normal;font-variant:normal;font-weight:normal;font-stretch:normal;line-height:125%;letter-spacing:0px;word-spacing:0px;fill:#ffffff;fill-opacity:0.60000002;stroke:none;font-family:FontAwesome;-inkscape-font-specification:FontAwesome"
       id="text3082">
      <path
         d="m 121.96003,641.9401 -25.489238,25.48923 c -0.364659,0.36466 -0.784009,0.54698 -1.258052,0.54698 -0.474054,0 -0.893404,-0.18232 -1.258053,-0.54698 l -2.734896,-2.7349 c -0.364654,-0.36464 -0.54698,-0.78399 -0.546979,-1.25805 -10e-7,-0.47404 0.182325,-0.89339 0.546979,-1.25805 L 112.71608,640.68204 91.219791,619.18576 c -0.364654,-0.3646 -0.54698,-0.78395 -0.546979,-1.25805 -10e-7,-0.474 0.182325,-0.89335 0.546979,-1.25806 l 2.734896,-2.73489 c 0.364649,-0.3646 0.783999,-0.54692 1.258053,-0.54698 0.474043,6e-5 0.893393,0.18238 1.258052,0.54698 l 25.489238,25.48923 c 0.36462,0.36469 0.54694,0.78404 0.54697,1.25805 -3e-5,0.47408 -0.18235,0.89343 -0.54697,1.25806 m 59.01906,24.99695 0,3.50067 c -9e-5,0.51051 -0.16419,0.92986 -0.49228,1.25805 -0.32828,0.32819 -0.74763,0.49228 -1.25806,0.49228 l -52.51,0 c -0.51055,0 -0.92991,-0.16409 -1.25806,-0.49228 -0.32822,-0.32819 -0.49231,-0.74754 -0.49228,-1.25805 l 0,-3.50067 c -3e-5,-0.51051 0.16406,-0.92986 0.49228,-1.25805 0.32815,-0.32818 0.74751,-0.49228 1.25806,-0.49229 l 52.51,0 c 0.51043,1e-5 0.92978,0.16411 1.25806,0.49229 0.32809,0.32819 0.49219,0.74754 0.49228,1.25805"
         style="fill:#ffffff;fill-opacity:0.60000002"
         id="path4468" />
    </g>
    <g
       transform="matrix(0.95422377,0.2695232,-0.25294588,0.97652694,0,0)"
       style="font-size:257.40515136999999868px;font-style:normal;font-variant:normal;font-weight:normal;font-stretch:normal;line-height:125%;letter-spacing:0px;word-spacing:0px;fill:#ffffff;fill-opacity:0.60000002;stroke:none;font-family:FontAwesome;-inkscape-font-specification:FontAwesome"
       id="text3086">
      <path
         d="m 188.49664,409.25012 0,13.78956 c -5e-5,1.53221 -0.76614,2.2983 -2.29826,2.29826 l -13.78956,0 c -1.53221,4e-5 -2.2983,-0.76605 -2.29826,-2.29826 l 0,-13.78956 c -4e-5,-1.53212 0.76605,-2.2982 2.29826,-2.29826 l 13.78956,0 c 1.53212,6e-5 2.29821,0.76614 2.29826,2.29826 m 18.38608,-36.77216 0,13.78956 c -7e-5,1.53225 -0.76616,2.29833 -2.29826,2.29826 l -32.17564,0 c -1.53221,7e-5 -2.2983,-0.76601 -2.29826,-2.29826 l 0,-13.78956 c -4e-5,-1.53209 0.76605,-2.29817 2.29826,-2.29826 l 32.17564,0 c 1.5321,9e-5 2.29819,0.76617 2.29826,2.29826 m -18.38608,-36.77217 0,13.78956 c -5e-5,1.53229 -0.76614,2.29837 -2.29826,2.29826 l -13.78956,0 c -1.53221,1.1e-4 -2.2983,-0.76597 -2.29826,-2.29826 l 0,-13.78956 c -4e-5,-1.53204 0.76605,-2.29813 2.29826,-2.29826 l 13.78956,0 c 1.53212,1.3e-4 2.29821,0.76622 2.29826,2.29826 m 147.08866,73.54433 0,13.78956 c -2e-4,1.53221 -0.76629,2.2983 -2.29826,2.29826 l -124.10606,0 c -1.53224,4e-5 -2.29833,-0.76605 -2.29826,-2.29826 l 0,-13.78956 c -7e-5,-1.53212 0.76602,-2.2982 2.29826,-2.29826 l 124.10606,0 c 1.53197,6e-5 2.29806,0.76614 2.29826,2.29826 m -91.93041,-36.77216 0,13.78956 c -1.1e-4,1.53225 -0.7662,2.29833 -2.29826,2.29826 l -13.78956,0 c -1.53227,7e-5 -2.29836,-0.76601 -2.29826,-2.29826 l 0,-13.78956 c -1e-4,-1.53209 0.76599,-2.29817 2.29826,-2.29826 l 13.78956,0 c 1.53206,9e-5 2.29815,0.76617 2.29826,2.29826 m -18.38608,-36.77217 0,13.78956 c -1e-4,1.53229 -0.76618,2.29837 -2.29826,2.29826 l -13.78957,0 c -1.53224,1.1e-4 -2.29833,-0.76597 -2.29826,-2.29826 l 0,-13.78956 c -7e-5,-1.53204 0.76602,-2.29813 2.29826,-2.29826 l 13.78957,0 c 1.53208,1.3e-4 2.29816,0.76622 2.29826,2.29826 m 55.15824,36.77217 0,13.78956 c -1.4e-4,1.53225 -0.76623,2.29833 -2.29826,2.29826 l -13.78956,0 c -1.5323,7e-5 -2.29839,-0.76601 -2.29826,-2.29826 l 0,-13.78956 c -1.3e-4,-1.53209 0.76596,-2.29817 2.29826,-2.29826 l 13.78956,0 c 1.53203,9e-5 2.29812,0.76617 2.29826,2.29826 m -18.38608,-36.77217 0,13.78956 c -1.3e-4,1.53229 -0.76621,2.29837 -2.29826,2.29826 l -13.78956,0 c -1.53229,1.1e-4 -2.29837,-0.76597 -2.29826,-2.29826 l 0,-13.78956 c -1.1e-4,-1.53204 0.76597,-2.29813 2.29826,-2.29826 l 13.78956,0 c 1.53205,1.3e-4 2.29813,0.76622 2.29826,2.29826 m 55.15825,36.77217 0,13.78956 c -1.9e-4,1.53225 -0.76627,2.29833 -2.29826,2.29826 l -13.78957,0 c -1.53234,7e-5 -2.29842,-0.76601 -2.29826,-2.29826 l 0,-13.78956 c -1.6e-4,-1.53209 0.76592,-2.29817 2.29826,-2.29826 l 13.78957,0 c 1.53199,9e-5 2.29807,0.76617 2.29826,2.29826 m 55.15824,36.77216 0,13.78956 c -2.4e-4,1.53221 -0.76632,2.2983 -2.29826,2.29826 l -13.78956,0 c -1.53239,4e-5 -2.29848,-0.76605 -2.29826,-2.29826 l 0,-13.78956 c -2.2e-4,-1.53212 0.76587,-2.2982 2.29826,-2.29826 l 13.78956,0 c 1.53194,6e-5 2.29802,0.76614 2.29826,2.29826 m -73.54433,-73.54433 0,13.78956 c -1.6e-4,1.53229 -0.76625,2.29837 -2.29826,2.29826 l -13.78956,0 c -1.53232,1.1e-4 -2.2984,-0.76597 -2.29826,-2.29826 l 0,-13.78956 c -1.4e-4,-1.53204 0.76594,-2.29813 2.29826,-2.29826 l 13.78956,0 c 1.53201,1.3e-4 2.2981,0.76622 2.29826,2.29826 m 36.77217,0 0,13.78956 c -2e-4,1.53229 -0.76629,2.29837 -2.29826,2.29826 l -13.78956,0 c -1.53236,1.1e-4 -2.29845,-0.76597 -2.29826,-2.29826 l 0,-13.78956 c -1.9e-4,-1.53204 0.7659,-2.29813 2.29826,-2.29826 l 13.78956,0 c 1.53197,1.3e-4 2.29806,0.76622 2.29826,2.29826 m 36.77216,0 0,50.56173 c -2.4e-4,1.53225 -0.76632,2.29833 -2.29826,2.29826 l -32.17564,0 c -1.53238,7e-5 -2.29846,-0.76601 -2.29826,-2.29826 l 0,-13.78956 c -2e-4,-1.53209 0.76588,-2.29817 2.29826,-2.29826 l 16.08782,0 0,-34.47391 c -2.2e-4,-1.53204 0.76587,-2.29813 2.29826,-2.29826 l 13.78956,0 c 1.53194,1.3e-4 2.29802,0.76622 2.29826,2.29826 m 18.38609,108.01824 0,-128.70258 -239.01907,0 0,128.70258 239.01907,0 m 18.38608,-128.70258 0,128.70258 c -2.8e-4,5.07533 -1.81973,9.43245 -5.45837,13.07135 -3.54342,3.54315 -7.85265,5.31473 -12.92771,5.31473 l -239.01907,0 c -5.07534,0 -9.43246,-1.77158 -13.07136,-5.31473 -3.54315,-3.6389 -5.31473,-7.99602 -5.31473,-13.07135 l 0,-128.70258 c 0,-5.07517 1.77158,-9.38441 5.31473,-12.92771 3.6389,-3.63875 7.99602,-5.45821 13.07136,-5.45837 l 239.01907,0 c 5.07506,1.6e-4 9.38429,1.81962 12.92771,5.45837 3.63864,3.5433 5.45809,7.85254 5.45837,12.92771"
         style="fill:#ffffff;fill-opacity:0.60000002"
         id="path3928" />
    </g>
    <g
       transform="matrix(0.86578888,-0.29761908,0.35508303,1.0329545,0,0)"
       style="font-size:33.73579787999999979px;font-style:normal;font-variant:normal;font-weight:normal;font-stretch:normal;line-height:125%;letter-spacing:0px;word-spacing:0px;fill:#ffffff;fill-opacity:0.60000002;stroke:none;font-family:FontAwesome;-inkscape-font-specification:FontAwesome"
       id="text3090">
      <path
         d="m 1529.3975,781.59467 -1.9532,0 -0.02,-5.87891 c -1.3672,-0.026 -2.7344,-0.18229 -4.1016,-0.46875 -1.3672,-0.29948 -2.7408,-0.74219 -4.1211,-1.32813 l 0,-3.51562 c 1.3282,0.83334 2.6693,1.46485 4.0235,1.89453 1.3672,0.41667 2.7734,0.63151 4.2187,0.64453 l 0,-8.90625 c -2.8776,-0.46874 -4.9739,-1.26301 -6.289,-2.38281 -1.3021,-1.11978 -1.9532,-2.65623 -1.9532,-4.60938 0,-2.12237 0.7097,-3.79555 2.129,-5.01953 1.4192,-1.22393 3.457,-1.92705 6.1132,-2.10937 l 0,-4.58985 1.9532,0 0,4.53125 c 1.2109,0.0521 2.3828,0.18232 3.5156,0.39063 1.1328,0.19534 2.2396,0.46877 3.3203,0.82031 l 0,3.41797 c -1.0807,-0.54685 -2.194,-0.97003 -3.3398,-1.26953 -1.1329,-0.29946 -2.2982,-0.47524 -3.4961,-0.52734 l 0,8.33984 c 2.9557,0.45574 5.1302,1.26954 6.5234,2.44141 1.3932,1.17188 2.0898,2.77344 2.0898,4.80468 0,2.20053 -0.7422,3.93881 -2.2265,5.21485 -1.4714,1.26302 -3.6003,1.99218 -6.3867,2.1875 l 0,5.91797 m -1.9532,-20.91797 0,-8.00782 c -1.5104,0.1693 -2.6627,0.59899 -3.457,1.28907 -0.7943,0.69012 -1.1914,1.60809 -1.1914,2.7539 0,1.11981 0.3646,1.99221 1.0937,2.61719 0.7422,0.62502 1.9271,1.07423 3.5547,1.34766 m 1.9532,3.75 0,8.45703 c 1.6536,-0.22135 2.8971,-0.6901 3.7304,-1.40625 0.8464,-0.71614 1.2695,-1.66015 1.2696,-2.83203 -10e-5,-1.14583 -0.4037,-2.05729 -1.211,-2.73438 -0.7943,-0.67707 -2.0573,-1.17186 -3.789,-1.48437"
         style="font-size:40px;fill:#ffffff;fill-opacity:0.60000002"
         id="path4471" />
    </g>
    <g
       transform="matrix(0.97268529,-0.40974972,0.28413443,0.90838836,0,0)"
       inkscape:transform-center-x="71.007683"
       inkscape:transform-center-y="18.65771"
       style="font-size:58.91020965999999959px;font-style:normal;font-variant:normal;font-weight:normal;font-stretch:normal;line-height:125%;letter-spacing:0px;word-spacing:0px;fill:#ffffff;fill-opacity:0.60000002;stroke:none;font-family:FontAwesome;-inkscape-font-specification:FontAwesome"
       id="text3094">
      <path
         d="m 1258.0883,1141.2017 c 0.4164,-0.4164 0.6246,-0.9095 0.6246,-1.4793 0,-0.5698 -0.2082,-1.0629 -0.6246,-1.4794 -0.4165,-0.4164 -0.9096,-0.6246 -1.4794,-0.6246 -0.5698,0 -1.0629,0.2082 -1.4793,0.6246 -0.4164,0.4165 -0.6246,0.9096 -0.6246,1.4794 0,0.5698 0.2082,1.0629 0.6246,1.4793 0.4164,0.4164 0.9095,0.6246 1.4793,0.6246 0.5698,0 1.0629,-0.2082 1.4794,-0.6246 m 38.4954,-20.4148 c 0,-1.1176 -0.4274,-2.0929 -1.2821,-2.9257 -0.8547,-0.8547 -1.83,-1.2821 -2.9258,-1.2821 l -11.5716,0 c 0,-1.2711 0.5259,-3.0134 1.5779,-5.227 1.052,-2.2354 1.578,-3.9996 1.578,-5.2927 0,-2.1477 -0.3507,-3.7366 -1.052,-4.7667 -0.7013,-1.03 -2.1039,-1.5451 -4.2078,-1.5451 -0.5699,0.5698 -0.9863,1.5013 -1.2493,2.7943 -0.263,1.2931 -0.6027,2.6738 -1.0191,4.1421 -0.3945,1.4465 -1.041,2.6409 -1.9395,3.5833 -0.4822,0.5041 -1.326,1.5012 -2.5313,2.9915 -0.088,0.1096 -0.3397,0.4384 -0.7561,0.9862 -0.4164,0.548 -0.7671,0.9972 -1.052,1.3479 -0.263,0.3506 -0.6356,0.8218 -1.1177,1.4135 -0.4822,0.5699 -0.9205,1.052 -1.315,1.4465 -0.3945,0.3726 -0.8218,0.7561 -1.282,1.1506 -0.4384,0.3945 -0.8767,0.6904 -1.315,0.8876 -0.4164,0.1973 -0.8,0.2959 -1.1506,0.2958 l -1.052,0 0,21.0394 1.052,0 c 0.2849,0 0.6246,0.033 1.0191,0.099 0.4164,0.066 0.778,0.1425 1.0848,0.2301 0.3288,0.066 0.7452,0.1863 1.2493,0.3617 0.5259,0.1534 0.9094,0.2739 1.1505,0.3616 0.263,0.088 0.6575,0.2301 1.1835,0.4273 0.526,0.1754 0.8438,0.2849 0.9534,0.3288 4.6242,1.5998 8.3718,2.3998 11.2429,2.3998 l 3.9777,0 c 4.2078,0 6.3118,-1.83 6.3118,-5.49 0,-0.5698 -0.055,-1.1834 -0.1643,-1.8409 0.6574,-0.3507 1.1724,-0.9205 1.545,-1.7095 0.3945,-0.8109 0.5917,-1.6217 0.5918,-2.4326 -10e-5,-0.8109 -0.1973,-1.567 -0.5918,-2.2684 1.1615,-1.0957 1.7423,-2.3997 1.7424,-3.912 -10e-5,-0.5478 -0.1097,-1.1505 -0.3288,-1.808 -0.2192,-0.6794 -0.4931,-1.2054 -0.8218,-1.578 0.7012,-0.022 1.282,-0.5369 1.7423,-1.5451 0.4821,-1.0081 0.7232,-1.8957 0.7232,-2.6628 m 4.2079,-0.033 c -10e-5,1.9505 -0.537,3.7367 -1.6108,5.3584 0.1972,0.7233 0.2958,1.4794 0.2958,2.2683 0,1.6876 -0.4164,3.2655 -1.2492,4.7339 0.066,0.4602 0.099,0.9314 0.099,1.4136 0,2.2135 -0.6575,4.164 -1.9724,5.8516 0.022,3.0463 -0.9096,5.4461 -2.7943,7.1994 -1.8848,1.7752 -4.3723,2.6627 -7.4624,2.6628 l -1.1835,0 -3.0572,0 c -2.104,-10e-5 -4.186,-0.2521 -6.2461,-0.7562 -2.0382,-0.4821 -4.4051,-1.1944 -7.1008,-2.1368 -2.5423,-0.8766 -4.0545,-1.3149 -4.5366,-1.3149 l -9.4677,0 c -1.1616,0 -2.1587,-0.4055 -2.9915,-1.2164 -0.8109,-0.8328 -1.2164,-1.8299 -1.2164,-2.9915 l 0,-21.0394 c 0,-1.1615 0.4055,-2.1477 1.2164,-2.9586 0.8328,-0.8328 1.8299,-1.2492 2.9915,-1.2492 l 9.0075,0 c 0.7889,-0.526 2.2902,-2.2245 4.5037,-5.0955 1.2711,-1.6437 2.4436,-3.0463 3.5175,-4.2079 0.526,-0.5478 0.9095,-1.4793 1.1506,-2.7943 0.263,-1.3368 0.6027,-2.7285 1.0191,-4.175 0.4164,-1.4464 1.0958,-2.6298 2.0382,-3.5503 0.8547,-0.8109 1.8409,-1.2163 2.9587,-1.2164 1.8409,10e-5 3.4955,0.3617 4.9639,1.0849 1.4684,0.7013 2.5861,1.8081 3.3532,3.3202 0.767,1.5123 1.1505,3.5505 1.1506,6.1146 -10e-5,2.0382 -0.5261,4.1422 -1.578,6.3118 l 5.7858,0 c 2.2793,0 4.2517,0.8328 5.9174,2.4984 1.6655,1.6657 2.4983,3.6272 2.4984,5.8845"
         style="fill:#ffffff;fill-opacity:0.60000002"
         id="path4475" />
    </g>
    <g
       transform="matrix(1.0138289,-0.22836604,0.21145004,0.93873039,0,0)"
       style="font-size:86.60253905999999802px;font-style:normal;font-variant:normal;font-weight:normal;font-stretch:normal;line-height:125%;letter-spacing:0px;word-spacing:0px;fill:#ffffff;fill-opacity:0.60000002;stroke:none;font-family:FontAwesome;-inkscape-font-specification:FontAwesome"
       id="text3098">
      <path
         d="m 1433.6964,1043.0817 c -1.1922,3.8984 -3.4152,7.0397 -6.6692,9.4238 -3.2541,2.3842 -6.927,3.5763 -11.0186,3.5763 -4.0918,0 -7.7647,-1.1921 -11.0187,-3.5763 -3.254,-2.3841 -5.4771,-5.5254 -6.6691,-9.4238 -0.2578,-0.8054 -0.1934,-1.5787 0.1933,-2.3197 0.3866,-0.7732 0.9987,-1.2887 1.8364,-1.5465 0.8054,-0.2577 1.5787,-0.1933 2.3197,0.1933 0.7732,0.3867 1.2887,0.9988 1.5465,1.8365 0.8054,2.5774 2.2875,4.6716 4.4461,6.2825 2.1908,1.5787 4.6394,2.3681 7.3458,2.3681 2.7063,0 5.1387,-0.7894 7.2974,-2.3681 2.1908,-1.6109 3.6889,-3.7051 4.4944,-6.2825 0.2577,-0.8377 0.7732,-1.4498 1.5465,-1.8365 0.7732,-0.3866 1.5625,-0.451 2.368,-0.1933 0.8054,0.2578 1.4015,0.7733 1.7881,1.5465 0.3866,0.741 0.451,1.5143 0.1934,2.3197 m -25.7102,-25.3718 c 1.2243,1.1921 1.8364,2.6419 1.8365,4.3494 -10e-5,1.7076 -0.6122,3.1736 -1.8365,4.3978 -1.1921,1.1921 -2.6419,1.7882 -4.3494,1.7881 -1.7076,10e-5 -3.1735,-0.596 -4.3978,-1.7881 -1.1921,-1.2242 -1.7881,-2.6902 -1.7881,-4.3978 0,-1.7075 0.596,-3.1573 1.7881,-4.3494 1.2243,-1.2243 2.6902,-1.8364 4.3978,-1.8365 1.7075,1e-4 3.1573,0.6122 4.3494,1.8365 m 24.7436,0 c 1.2242,1.1921 1.8364,2.6419 1.8364,4.3494 0,1.7076 -0.6122,3.1736 -1.8364,4.3978 -1.1921,1.1921 -2.6419,1.7882 -4.3494,1.7881 -1.7077,10e-5 -3.1736,-0.596 -4.3978,-1.7881 -1.1921,-1.2242 -1.7882,-2.6902 -1.7881,-4.3978 -10e-5,-1.7075 0.596,-3.1573 1.7881,-4.3494 1.2242,-1.2243 2.6901,-1.8364 4.3978,-1.8365 1.7075,1e-4 3.1573,0.6122 4.3494,1.8365 m 11.7435,28.7547 c 1.6431,-3.8339 2.4647,-7.8451 2.4647,-12.0335 0,-4.1883 -0.8216,-8.1834 -2.4647,-11.9852 -1.6431,-3.8339 -3.8501,-7.1201 -6.6208,-9.8587 -2.7386,-2.7707 -6.0249,-4.9777 -9.8588,-6.6209 -3.8018,-1.643 -7.7968,-2.4646 -11.9851,-2.4647 -4.1884,10e-5 -8.1996,0.8217 -12.0335,2.4647 -3.8018,1.6432 -7.0881,3.8502 -9.8588,6.6209 -2.7386,2.7386 -4.9294,6.0248 -6.5725,9.8587 -1.6432,3.8018 -2.4647,7.7969 -2.4647,11.9852 0,4.1884 0.8215,8.1996 2.4647,12.0335 1.6431,3.8018 3.8339,7.088 6.5725,9.8588 2.7707,2.7385 6.057,4.9294 9.8588,6.5725 3.8339,1.6431 7.8451,2.4647 12.0335,2.4647 4.1883,0 8.1833,-0.8216 11.9851,-2.4647 3.8339,-1.6431 7.1202,-3.834 9.8588,-6.5725 2.7707,-2.7708 4.9777,-6.057 6.6208,-9.8588 m 3.6729,-30.6395 c 3.3184,5.6705 4.9777,11.8724 4.9777,18.606 0,6.7336 -1.6593,12.9518 -4.9777,18.6544 -3.3185,5.6704 -7.8291,10.1648 -13.5316,13.4833 -5.6705,3.3184 -11.8725,4.9777 -18.606,4.9777 -6.7337,0 -12.9518,-1.6593 -18.6544,-4.9777 -5.6704,-3.3185 -10.1648,-7.8129 -13.4833,-13.4833 -3.3185,-5.7026 -4.9777,-11.9208 -4.9777,-18.6544 0,-6.7336 1.6592,-12.9355 4.9777,-18.606 3.3185,-5.7026 7.8129,-10.2131 13.4833,-13.5316 5.7026,-3.31845 11.9207,-4.97769 18.6544,-4.97776 6.7335,7e-5 12.9355,1.65931 18.606,4.97776 5.7025,3.3185 10.2131,7.829 13.5316,13.5316"
         style="fill:#ffffff;fill-opacity:0.60000002"
         id="path4478" />
    </g>
    <g
       transform="matrix(0.97472526,0.22340698,-0.22340698,0.97472526,0,0)"
       style="font-size:40px;font-style:normal;font-variant:normal;font-weight:normal;font-stretch:normal;line-height:125%;letter-spacing:0px;word-spacing:0px;fill:#ffffff;fill-opacity:0.60000002;stroke:none;font-family:FontAwesome;-inkscape-font-specification:FontAwesome"
       id="text4272">
      <path
         d="m 512.00618,384.62621 -2.00893,2.00893 c -0.26788,0.26786 -0.57591,0.40179 -0.9241,0.40179 -0.34824,0 -0.65627,-0.13393 -0.92411,-0.40179 l -18.72322,-18.72321 c -0.26785,-0.26784 -0.40178,-0.57587 -0.40178,-0.92411 0,-0.34819 0.13393,-0.65623 0.40178,-0.92411 l 18.72322,-18.72321 c 0.26784,-0.26782 0.57587,-0.40174 0.92411,-0.40179 0.34819,5e-5 0.65622,0.13397 0.9241,0.40179 l 2.00893,2.00893 c 0.26783,0.26789 0.40176,0.57593 0.40179,0.9241 -3e-5,0.34826 -0.13396,0.65629 -0.40179,0.92411 L 496.216,366.98782 512.00618,382.778 c 0.26783,0.26786 0.40176,0.5759 0.40179,0.9241 -3e-5,0.34823 -0.13396,0.65626 -0.40179,0.92411 m 23.74554,-42.87053 -14.98661,51.87053 c -0.10718,0.34821 -0.32146,0.60268 -0.64286,0.76339 -0.29467,0.1875 -0.60271,0.22768 -0.9241,0.12054 l -2.49108,-0.68304 c -0.34824,-0.10714 -0.6161,-0.32143 -0.80357,-0.64285 -0.16074,-0.29465 -0.18753,-0.61608 -0.0803,-0.96429 l 14.9866,-51.87053 c 0.1071,-0.34817 0.308,-0.60263 0.60268,-0.7634 0.32139,-0.18745 0.64281,-0.22762 0.96429,-0.12053 l 2.49107,0.68303 c 0.34817,0.1072 0.60263,0.32148 0.76339,0.64286 0.18745,0.29469 0.22763,0.61612 0.12054,0.96429 m 26.39732,26.15625 -18.72322,18.72321 c -0.26791,0.26786 -0.57594,0.40179 -0.9241,0.40179 -0.34827,0 -0.65631,-0.13393 -0.92411,-0.40179 l -2.00893,-2.00893 c -0.26791,-0.26785 -0.40184,-0.57588 -0.40178,-0.92411 -6e-5,-0.3482 0.13387,-0.65624 0.40178,-0.9241 l 15.79018,-15.79018 -15.79018,-15.79018 c -0.26791,-0.26782 -0.40184,-0.57585 -0.40178,-0.92411 -6e-5,-0.34817 0.13387,-0.65621 0.40178,-0.9241 l 2.00893,-2.00893 c 0.2678,-0.26782 0.57584,-0.40174 0.92411,-0.40179 0.34816,5e-5 0.65619,0.13397 0.9241,0.40179 l 18.72322,18.72321 c 0.26778,0.26788 0.40171,0.57592 0.40178,0.92411 -7e-5,0.34824 -0.134,0.65627 -0.40178,0.92411"
         style="font-size:72px;fill:#ffffff;fill-opacity:0.60000002"
         id="path4481" />
    </g>
    <g
       transform="matrix(0.99400096,-0.10937135,0.10937135,0.99400096,0,0)"
       style="font-size:40px;font-style:normal;font-variant:normal;font-weight:normal;font-stretch:normal;line-height:125%;letter-spacing:0px;word-spacing:0px;fill:#ffffff;fill-opacity:0.60000002;stroke:none;font-family:FontAwesome;-inkscape-font-specification:FontAwesome"
       id="text4276">
      <path
         d="m 1585.545,703.73212 -14.1093,5.01757 14.1093,4.99024 0,2.48828 -17.5273,-6.35742 0,-2.26953 17.5273,-6.35742 0,2.48828"
         style="font-size:28px;fill:#ffffff;fill-opacity:0.60000002"
         id="path4484" />
      <path
         d="m 1593.8575,714.04071 2.7754,0 0,3.47266 -2.7754,0 0,-3.47266 m 2.6934,-2.00977 -2.6113,0 0,-2.10546 c 0,-0.92057 0.1276,-1.67708 0.3828,-2.26954 0.2552,-0.59243 0.7929,-1.28058 1.6133,-2.06445 l 1.2304,-1.2168 c 0.5196,-0.48305 0.8933,-0.93878 1.1211,-1.36718 0.237,-0.42837 0.3555,-0.86587 0.3555,-1.3125 0,-0.81118 -0.3008,-1.46743 -0.9023,-1.96875 -0.5925,-0.50129 -1.3809,-0.75194 -2.3653,-0.75196 -0.72,2e-5 -1.4902,0.15953 -2.3105,0.47852 -0.8112,0.31903 -1.6589,0.78387 -2.543,1.39453 l 0,-2.57031 c 0.8568,-0.51951 1.7227,-0.90688 2.5977,-1.16211 0.8841,-0.25519 1.7955,-0.38279 2.7343,-0.38281 1.6771,2e-5 3.0215,0.44207 4.0332,1.32617 1.0209,0.88413 1.5313,2.0508 1.5313,3.5 0,0.69272 -0.1641,1.35353 -0.4922,1.98242 -0.3281,0.61981 -0.9024,1.32163 -1.7227,2.10547 l -1.2031,1.17578 c -0.4284,0.4284 -0.7337,0.76564 -0.916,1.01172 -0.1732,0.23699 -0.2962,0.46941 -0.3691,0.69726 -0.055,0.19142 -0.096,0.42384 -0.1231,0.69727 -0.027,0.27345 -0.041,0.64714 -0.041,1.12109 l 0,1.68164"
         style="font-size:28px;fill:#ffffff;fill-opacity:0.60000002"
         id="path4486" />
      <path
         d="m 1606.3536,704.79852 17.5274,0 0,2.29688 -17.5274,0 0,-2.29688 m 0,5.57813 17.5274,0 0,2.32422 -17.5274,0 0,-2.32422"
         style="font-size:28px;fill:#ffffff;fill-opacity:0.60000002"
         id="path4488" />
      <path
         d="m 1631.8654,697.10126 0,7.58789 -2.3243,0 0,-7.58789 2.3243,0 m 5.1679,0 0,7.58789 -2.3242,0 0,-7.58789 2.3242,0"
         style="font-size:28px;fill:#ffffff;fill-opacity:0.60000002"
         id="path4490" />
      <path
         d="m 1650.7872,698.9743 c -2.0052,2e-5 -3.6002,0.74742 -4.7851,2.24219 -1.1758,1.49481 -1.7637,3.53192 -1.7637,6.11133 0,2.57032 0.5879,4.60287 1.7637,6.09766 1.1849,1.49479 2.7799,2.24219 4.7851,2.24218 2.0052,1e-5 3.5912,-0.74739 4.7578,-2.24218 1.1758,-1.49479 1.7637,-3.52734 1.7637,-6.09766 0,-2.57941 -0.5879,-4.61652 -1.7637,-6.11133 -1.1666,-1.49477 -2.7526,-2.24217 -4.7578,-2.24219 m 0,-2.24218 c 2.862,2e-5 5.1498,0.96161 6.8633,2.88476 1.7135,1.91408 2.5703,4.48439 2.5703,7.71094 0,3.21745 -0.8568,5.78776 -2.5703,7.71094 -1.7135,1.91406 -4.0013,2.87109 -6.8633,2.87109 -2.8711,0 -5.1679,-0.95703 -6.8906,-2.87109 -1.7135,-1.91406 -2.5703,-4.48437 -2.5703,-7.71094 0,-3.22655 0.8568,-5.79686 2.5703,-7.71094 1.7227,-1.92315 4.0195,-2.88474 6.8906,-2.88476"
         style="font-size:28px;fill:#ffffff;fill-opacity:0.60000002"
         id="path4492" />
      <path
         d="m 1664.172,711.4704 0,-9.26953 2.5156,0 0,9.17382 c 0,1.44923 0.2826,2.53842 0.8477,3.26758 0.5651,0.72006 1.4127,1.08008 2.5429,1.08008 1.3581,0 2.4291,-0.43294 3.2129,-1.29883 0.793,-0.86588 1.1895,-2.04622 1.1895,-3.54101 l 0,-8.68164 2.5156,0 0,15.3125 -2.5156,0 0,-2.35157 c -0.6107,0.92969 -1.3216,1.6224 -2.1328,2.07813 -0.8021,0.44661 -1.7364,0.66992 -2.8028,0.66992 -1.7591,0 -3.0944,-0.54687 -4.0058,-1.64062 -0.9115,-1.09375 -1.3672,-2.69336 -1.3672,-4.79883 m 6.3301,-9.63867 0,0"
         style="font-size:28px;fill:#ffffff;fill-opacity:0.60000002"
         id="path4494" />
      <path
         d="m 1681.1115,702.20087 11.9492,0 0,2.29687 -9.461,11.00586 9.461,0 0,2.00977 -12.291,0 0,-2.29688 9.4609,-11.00586 -9.1191,0 0,-2.00976"
         style="font-size:28px;fill:#ffffff;fill-opacity:0.60000002"
         id="path4496" />
      <path
         d="m 1702.8497,703.96454 c -1.3489,10e-6 -2.4153,0.52866 -3.1992,1.58594 -0.7838,1.04818 -1.1758,2.48829 -1.1758,4.32031 0,1.83204 0.3874,3.2767 1.1621,4.33398 0.7839,1.04818 1.8549,1.57227 3.2129,1.57227 1.3399,0 2.4017,-0.52864 3.1856,-1.58594 0.7838,-1.05729 1.1757,-2.49739 1.1758,-4.32031 -10e-5,-1.81379 -0.392,-3.24934 -1.1758,-4.30664 -0.7839,-1.0664 -1.8457,-1.5996 -3.1856,-1.59961 m 0,-2.13281 c 2.1875,10e-6 3.9056,0.71095 5.1543,2.13281 1.2487,1.42189 1.8731,3.39063 1.8731,5.90625 0,2.50651 -0.6244,4.47526 -1.8731,5.90625 -1.2487,1.42187 -2.9668,2.13281 -5.1543,2.13281 -2.1966,0 -3.9192,-0.71094 -5.1679,-2.13281 -1.2396,-1.43099 -1.8594,-3.39974 -1.8594,-5.90625 0,-2.51562 0.6198,-4.48436 1.8594,-5.90625 1.2487,-1.42186 2.9713,-2.1328 5.1679,-2.13281"
         style="font-size:28px;fill:#ffffff;fill-opacity:0.60000002"
         id="path4499" />
      <path
         d="m 1716.4122,697.10126 0,7.58789 -2.3242,0 0,-7.58789 2.3242,0 m 5.168,0 0,7.58789 -2.3242,0 0,-7.58789 2.3242,0"
         style="font-size:28px;fill:#ffffff;fill-opacity:0.60000002"
         id="path4501" />
      <path
         d="m 1729.6466,714.04071 2.7754,0 0,3.47266 -2.7754,0 0,-3.47266 m 2.6934,-2.00977 -2.6114,0 0,-2.10546 c 0,-0.92057 0.1276,-1.67708 0.3829,-2.26954 0.2552,-0.59243 0.7929,-1.28058 1.6132,-2.06445 l 1.2305,-1.2168 c 0.5195,-0.48305 0.8932,-0.93878 1.1211,-1.36718 0.237,-0.42837 0.3555,-0.86587 0.3555,-1.3125 0,-0.81118 -0.3008,-1.46743 -0.9024,-1.96875 -0.5924,-0.50129 -1.3808,-0.75194 -2.3652,-0.75196 -0.7201,2e-5 -1.4903,0.15953 -2.3106,0.47852 -0.8112,0.31903 -1.6588,0.78387 -2.5429,1.39453 l 0,-2.57031 c 0.8567,-0.51951 1.7226,-0.90688 2.5976,-1.16211 0.8841,-0.25519 1.7956,-0.38279 2.7344,-0.38281 1.6771,2e-5 3.0215,0.44207 4.0332,1.32617 1.0208,0.88413 1.5312,2.0508 1.5313,3.5 -10e-5,0.69272 -0.1641,1.35353 -0.4922,1.98242 -0.3282,0.61981 -0.9024,1.32163 -1.7227,2.10547 l -1.2031,1.17578 c -0.4284,0.4284 -0.7337,0.76564 -0.916,1.01172 -0.1732,0.23699 -0.2963,0.46941 -0.3692,0.69726 -0.055,0.19142 -0.096,0.42384 -0.123,0.69727 -0.027,0.27345 -0.041,0.64714 -0.041,1.12109 l 0,1.68164"
         style="font-size:28px;fill:#ffffff;fill-opacity:0.60000002"
         id="path4503" />
      <path
         d="m 1742.1427,703.73212 0,-2.48828 17.5273,6.35742 0,2.26953 -17.5273,6.35742 0,-2.48828 14.082,-4.99024 -14.082,-5.01757"
         style="font-size:28px;fill:#ffffff;fill-opacity:0.60000002"
         id="path4505" />
    </g>
    <g
       transform="matrix(0.9851372,-0.17176932,0.17176932,0.9851372,0,0)"
       style="font-size:40px;font-style:normal;font-variant:normal;font-weight:normal;font-stretch:normal;line-height:125%;letter-spacing:0px;word-spacing:0px;fill:#ffffff;fill-opacity:0.60000002;stroke:none;font-family:FontAwesome;-inkscape-font-specification:FontAwesome"
       id="text4418">
      <path
         d="m 1713.2871,589.96246 -1.9531,0 -0.02,-5.8789 c -1.3672,-0.026 -2.7344,-0.18229 -4.1016,-0.46875 -1.3672,-0.29948 -2.7409,-0.74219 -4.1211,-1.32813 l 0,-3.51562 c 1.3281,0.83333 2.6693,1.46484 4.0234,1.89453 1.3672,0.41667 2.7735,0.63151 4.2188,0.64453 l 0,-8.90625 c -2.8776,-0.46874 -4.974,-1.26301 -6.2891,-2.38281 -1.3021,-1.11978 -1.9531,-2.65624 -1.9531,-4.60938 0,-2.12237 0.7096,-3.79555 2.1289,-5.01953 1.4193,-1.22393 3.457,-1.92706 6.1133,-2.10937 l 0,-4.58985 1.9531,0 0,4.53125 c 1.2109,0.0521 2.3828,0.18232 3.5156,0.39063 1.1328,0.19533 2.2396,0.46877 3.3203,0.82031 l 0,3.41797 c -1.0807,-0.54685 -2.194,-0.97003 -3.3398,-1.26953 -1.1328,-0.29946 -2.2982,-0.47524 -3.4961,-0.52735 l 0,8.33985 c 2.9557,0.45574 5.1302,1.26954 6.5234,2.4414 1.3933,1.17189 2.0899,2.77345 2.0899,4.80469 0,2.20053 -0.7422,3.93881 -2.2266,5.21484 -1.4713,1.26303 -3.6002,1.99219 -6.3867,2.1875 l 0,5.91797 m -1.9531,-20.91797 0,-8.00781 c -1.5104,0.1693 -2.6628,0.59898 -3.457,1.28906 -0.7943,0.69013 -1.1915,1.6081 -1.1915,2.75391 0,1.11981 0.3646,1.99221 1.0938,2.61719 0.7422,0.62501 1.9271,1.07423 3.5547,1.34765 m 1.9531,3.75 0,8.45704 c 1.6536,-0.22136 2.8971,-0.6901 3.7305,-1.40625 0.8463,-0.71614 1.2695,-1.66015 1.2695,-2.83204 0,-1.14582 -0.4037,-2.05728 -1.2109,-2.73437 -0.7943,-0.67707 -2.0573,-1.17186 -3.7891,-1.48438"
         style="fill:#ffffff;fill-opacity:0.60000002"
         id="path4508" />
      <path
         d="m 1729.0098,562.20856 3.5937,0 0,21.875 -3.5937,0 0,-21.875 m 0,-8.51563 3.5937,0 0,4.55078 -3.5937,0 0,-4.55078"
         style="fill:#ffffff;fill-opacity:0.60000002"
         id="path4510" />
      <path
         d="m 1754.7324,559.00543 0,10.87891 10.8789,0 0,3.32031 -10.8789,0 0,10.87891 -3.2812,0 0,-10.87891 -10.8789,0 0,-3.32031 10.8789,0 0,-10.87891 3.2812,0"
         style="fill:#ffffff;fill-opacity:0.60000002"
         id="path4512" />
      <path
         d="m 1788.248,559.00543 0,10.87891 10.879,0 0,3.32031 -10.879,0 0,10.87891 -3.2812,0 0,-10.87891 -10.8789,0 0,-3.32031 10.8789,0 0,-10.87891 3.2812,0"
         style="fill:#ffffff;fill-opacity:0.60000002"
         id="path4514" />
      <path
         d="m 1808.0527,563.39996 4.1211,0 0,4.96094 -4.1211,0 0,-4.96094 m 0,15.72266 4.1211,0 0,3.35937 -3.2031,6.25 -2.5195,0 1.6015,-6.25 0,-3.35937"
         style="fill:#ffffff;fill-opacity:0.60000002"
         id="path4516" />
    </g>
  </g>
</svg>
